<svg xmlns="http://www.w3.org/2000/svg" xmlns:xlink="http://www.w3.org/1999/xlink" viewBox="0 0 876 21.37"><defs><style>.cls-1{fill:url(#radial-gradient);}</style><radialGradient id="radial-gradient" cx="438" cy="-140.21" r="330.12" gradientUnits="userSpaceOnUse"><stop offset="0" stop-color="#fafafa"/><stop offset="0.36" stop-color="#f7f7f7"/><stop offset="0.61" stop-color="#eee"/><stop offset="0.83" stop-color="#dfdfdf"/><stop offset="1" stop-color="#ccc"/></radialGradient></defs><title>02</title><g id="Слой_2" data-name="Слой 2"><g id="Слой_1-2" data-name="Слой 1"><path class="cls-1" d="M0,12c3.29-.14,4.55,2.21,7.66,3,.07-.45.14-.88-.22-1,.36-.81.69.73.85,1,.32-.3,1.15,0,1-.84.34.39.48.94,1.5.77-.38-1.43.63.15,1.08-1.47.51,1,1.55.42,2.12.84.12-.67-.16-1-.84-1,.56-1,.69.73,1.52.47-.17-.34-.68-.39-.53-1C16,14.15,20,15.33,21.79,15c-.07-.37-.47-.84-.59-.37,0-1.54,3.2,1.62,4.3,1-.37-3.33,5.72.39,7.5.41.46,0,.89.72.88.72s3.46-1.85,4.42-.21c-.16-1,4.2.07,3.7.67,1,.25.8-.88,1.93-.44-.22-.48-1-.55-1.5-.77,2.93-1,4.89.7,6.73,1.91a.87.87,0,0,0,.72-.88c.68,0,0,1.12.16,1.59.94-.83,1.68-.32,2.3-1,2.07,2,5.44.81,6.45,1.57-.23-.48,1.16-.55.71-.88,1.51-.6,1.22.94,3,.93.7-.15-.49-1.09-.81-1.34,0-.78,1.7,1.55,3,1.55.78-.21-.62-1-.13-1.9,1.6,1.19.55,1.28,1.66,2.36.43-.05.33-.75.43-1.22,1.34,1.33,2.72,2.09,4,.71.17,1.87,1.42-.42,1.12,1.37,1-.91,1.6,0,2.3-1,.92.29-.36.64-.12,1.24,1.32-1.1,3.29-.23,3.7-2.47-.18,1.24.43,2.77,1.63,2.67.81,0-.38-.58.12-1.24.68.29.56,1.25,1.44,1.39,1.58-.94,3.26-1.75,4.82-1.1.79-.14-.5-.89-.17-1.59.12.6,1.48,1.31,1.28-.19.73,0,.26.93.84,1s1.7-1.92,1.9-.14c.58,0,.3-1,.74-1.19,1,.24-.63,1.67.17,1.6,1.26.21.23-.64.43-1.22.22,1.25,2.65-.15,1.77,1.12,1-.29,1.77-1.1,2.87-.36-.7-.69-.27-.52-.48-1.62,1.08.44,1.55-.52,2.78.58.58-.56,0-.39.12-1.24,1.43-.53,5.64,1.95,5.94.26,1.47-.32,3.43,1.25,4.71.14,1,1.39,2.7,0,4.29,1,.12-.52-.45-.86.09-.93,1.1.14,0,.46.51,1.31,2.31-.29.44.48,2.77.58,0-.37-.54-.32-.91-.41,2.6-.4,2.72.3,4.33.74.67.11.25-1.09.47-1.53.66-.39,4.26.86,3.17-.32.74-.91,3.09,2,3.48-.3.64,1.17,2.17.45,1.44-.47a1.39,1.39,0,0,1-.41-.37,1.89,1.89,0,0,1,.41.37A8.08,8.08,0,0,0,134,18c-.17-.33-.69-.39-.53-1,.73-.61,1.75,0,2.14.52.49-1-1-.33-.5-1.3,1.19,0,2.78.58,2.89-.67.87.68.37,1.39,1.44,1.4.77-.11-1-.7.12-1.25.59,2.1,4.93.71,6.94-.27-1.31-1.7,2.19-1.41,3.92-1.51-.11-.29-.22-.58-.56-.68.78.16,2,0,2.43.86,1.1,0-.43-1.43.43-1.21.71,1.07,2.67,0,2.28.42.93.2.74,1,1.08.53,1.89,1.73,5.64-1.21,6.26.29.49-.22.55-1,.77-1.5,1.33,0,1.69.71,2.74.9,1.77-2,4.92,0,6.41-1.27-.6-.7-1.49-1.18-1.4-1.71.58-.83,1.1.79,1.81.8a.88.88,0,0,0-.88-.71,6.22,6.22,0,0,1,2.86-.35c0,.8,1.41.58.51,1.3.54-.08,2.91.16,1.61-.47.32-.69,1.45.31,1.5.77a1.33,1.33,0,0,0,.74-1.18c1,.79,2-.41,2.8.27.37.13,1.16-.79.41-.9.5-.67,1,1.07,1.43,1.39,1,0,1-1.15,2.27-.72,0-.31-.36-.28-.59-.37,1.05.13,2.42-1.23,3.08.61,1-.39-.28-1.25,1.15-2.09-1.11,0-1.06.26-1.87-.18,2.87-.7,4.74,2.29,6.67,2.53.5,0,.13-.64-.35-.91,1.79.5,5.17,2.22,4.83.09,2.3,1.14,3.94-.19,6.76,1.59-.13-.93,1.72,0,2.55-.38-1.25-.72-.35-.84.18-1.87-.06,1.1,2.05.15,3.11.3,2.56.35,5.32,1.72,7.42,1.34.45-.27-.09-.52.71-.87,2.75,1.93,4.75-.38,6.66-.62-.2,0,.48,1.13,1.84.5,2.46-1.15,6.92-.15,10.62.71,1.06.11,2.48-1.14,3.45,0-.28-1,1.45.07,1-.54.92-.22,2.77,1.56,3.15,0,.59,1.94,2.36.82,3.64,1.3-1.25-.47.82-1-.38-1.28l-.43-.06.43.06a39.2,39.2,0,0,1,7.52,2.28c1-.78,2.28-1,2.39-2,.64.14-.05,1.38.47,1.62.78.44,1.43-.83,1.21.43.37-.4,1.75-.94.09-.94,1-.83,2.68.52,3.46,0,.17-.51-.19-.61-.56-.68,2.84.84,4.6-1.35,9.46-.34.49.1-.34.56.25.65,1.19.52.73-1,1.93-.44-.19-.93-.43-.4-1.22-.43,1.12-1.84,3.76.6,5.58.85,1.4-.45,1-.95,1.76-2,2.58-.07,5.7.86,9.26,1.83.35.1,1.08-.25,1.27-.19.87.29,1.88,1.3.62.06,1.4.8,4,1.61,6,3.09,1.09-.18,1.77-.85,2.95-.93-.3-.21,1.14-1.85,1.09-1.82.21-.15.92.1.93.09a2.27,2.27,0,0,0,.36-.26c-.19-.42.47-.43,0,0a1.25,1.25,0,0,0,.26.32c.51.45,3.13-.42,2-1.06,3.94,1.09,6.39.59,10.44,2.57.21-.43-1.14-.87-.22-1,2.05,2.77,5.52-.91,7.72,1.38.37,0,.32-.55.4-.91.52,1.35,1.34.67,2.72,1.21.67,0-.36-1-.51-1.31,1.09-.1,1.75,1.21,3,1.55,2.23-1,4.52-.45,7.25-.25.14-.45.47-.51,1.05-1.15,1.53,1,1.51-.26,2.24-.41,4.08.85,13.65,2.6,17.9.15.39.1,1.44,1.05,1.53.46.44.18-.06.27-.06.62,4.3-.39,8.85,3,12.33,2.45a3.08,3.08,0,0,0-2.15-.52c-.11-.29-.22-.58-.56-.68.58-.64,1.68.22,1.05-1.16,2.61,1.63,4.49-.66,6.83,1,.67.19,1.8-.77,1.05-1.16,1.43-.31,3.08,1.66,4.49,2.32.58-.23.52-1.23,1.65-.78a2.24,2.24,0,0,0-.88-.72c.23-.17,3.11,1.11,2.34,1.8a2,2,0,0,1,2.18.21c.57-1.14-1.38-.2-.81-1.34.32.4,2.3,1,1.93-.44,1.34,1.18,5,1.41,6.11,1.85,2.22,1,4.14.24,6.71-1.24,0-.3-.35-.28-.59-.37,2.91-.66,3.23,1.41,6.48,1.25-.16-.43-.61-.64-1.19-.74-.47-.78,1.89.36,2.12.83.62-.6,1.14-.43.78-1.49.62.15.53.9,1.15,1.05.48-.09-.08-.41.09-.93,2.62.17,9.21,2.47,8.87-.72,3.11.42,4.91-.81,7.31-.87a.65.65,0,0,1-.62.54c1.73.31,3.2,2.35,5.65,2.78,2.63.46,6.77-2.06,8,1.4a1.82,1.82,0,0,1,1.28-.19c.17.61.91.31.22,1,1.12.17,3-.7,4.39.1,1.11-2.16,5.36.24,6.13-1.6.5.65,2.9,2.61,3.39.64.25,1.45,5.12.84,2.27-.73.52-.13,2,1.4,2.62,2.14,1.07-.18.1-.69.74-1.18.41,1.37.76-.56,2.43.86-.06-.7,1.54-.73,1.77-2,1.4,1.36,1.61.56,3.65,1.3.52-1,4.26-2.68,5.73-.71,3.88-2.12,8.83-1.76,12.91-.32,1.83.13,4.1-1.6,6.63-.31a.32.32,0,0,0,.06-.62c2.28,0,6.7.43,8-1.74,1.9,2,9.26.07,11.78,1.77,5.25-.72,9-3,15.52-1.33.93-.73.43-1,.18-1.87,3.65,2,8.77,1.42,11.11-1.13a1.45,1.45,0,0,0-.4.9c3-.57,7-1.22,10-2.8,1.15,2.43,4.91,1.25,6.63,2.84,1.67-2.14,8.42-1.92,12-.73.25-1.56,3.9.07,5.41-.73-.22.58,4.79,1.35,6.23.6.06.54-.3.56-.69.56,3.3,1.39,5.39,1.33,8.64,1.78a1.77,1.77,0,0,1-.2-1.28c.27,1.13,3,1.87,2.78.59.61.06.31.88,1.18.74.61-.89,1.86-1,2.39-2a20.12,20.12,0,0,1,2.12.83c.81,0-.37-.58.12-1.24,2.9.28,6.13,2.23,6.85.66.61.09,1,.42,1.93-.45l-.09.94c1.81-2.35,4.57-1,7.62-.84.37,0,.32-.54.4-.9,4,.83,5.11-.6,8.1.78.41.11.28-.6-.08-.9a3.63,3.63,0,0,1-.45-.1.48.48,0,0,1,.45.1c2.78.64,5.41-.27,8-.22.17-.9-.61-1-.44-1.93.61-.52.9.23,1.53.47-.11-.29-.22-.59-.56-.68.2-1.2,2.44.82,2.61-1,2.33,1,5.14-3.58,8-2,2.34-1.13,5.65-.22,8.1.78A6.42,6.42,0,0,1,654,5.43c.64-1.8,2.11,3,3.13.85.35,2.14,2.62.33,3,1.54.38,0,.32-.54.41-.9,3.11,1.62,6-3.36,8.87-1.58,1.6-1.78,2.93,3.48,5.11,3.24.12-.67-.16-1-.85-1,.88-.86,4.06.62.94.09a2.07,2.07,0,0,1,.16,1.59c.58,0,.29-1,.74-1.18.83,1.86,3.19-2.36,5.05-2.54a.1.1,0,0,1,.16,0l-.16,0c-.35.39-.62,3-1.31,2.9,3.39.26,7.11,1.12,10.7-.23.35.26.76-2.15.83-2.67h0c0-.15,0-.13,0,0,.4-.54,1.09,1.71,1.79,2.71-.12-.35.54-.53,0-.73,1.82.75,2.61-1.36,5.39-.42.5-.12,0-.33-.28-.34,4.31-2.94,11.65,4.34,17.5,1.06,2.3,1,4.89,0,7.13,1-1-1.72,3.5,1.3,5.1-.77-.33,1,.57.54.62.06.43.15,0,.55-.37.6a2.23,2.23,0,0,0,.88.71c.13-.39.51-1.1,2-.76a2.68,2.68,0,0,1-.13-1.89c.53-1,.2,1.13.16,1.58,4,1.64,5.81-1.69,8.28-1.08.29-.82-.58-.67-.85-1,.29-.67,1.57-.89,1.93-.44-.15.48-.52-.33-.65.25,0,.35.6.27.56.68,1.65-.8,2.23-.73,4.11-.23A3.13,3.13,0,0,0,745,4.69c1.39.09-.36.78-.15,1.56,1.5-1.81,2.61-.22,3.72-2.78.38.44.53,1,.94.09.45.18-.17.38-.09.93,1,.2.48-1.5,2-.75,0-.58-1-.29-1.18-.74-.59-1,1.77,1.19,2.18.2.41.14.18.81.19,1.28.3-.15.56-.82.65-.25.48-.09-.08-.41.09-.94.59.19.13,1.24,1.16,1.06.75,0-.27-.88-.54-1,.53,0,2.09,1.52,2.26,2.73.43-.63,1.52-.47,1.7-1.41.46.52-.41,1.53,1.1,1.68.24-.86.32.15.71-.88.27,1,1.23,0,.53,1,.62.16,1,0,1-.53a14.53,14.53,0,0,1,1.44,1.39c1.29-.27,1.69-1.08,3.17-.32.36-1.34-.64.19-.56-.68,1.33-1.46,3.34-.22,4-2.13,3.48,1.55,9.09.85,10.32,3.82.43-.06.33-.75.43-1.22a5.33,5.33,0,0,0,2.65,1.83c-1.64-1.2,2.31-.22,2.47.55.43,0,.33-.75.43-1.21.72.22,1.5,1.5,3.39.64.36.09.21.59.22,1,.6-.87,4.07,1.16,5.38-.42.74.6.81.86,1.72,1.74A2.21,2.21,0,0,0,797,10c-2.35-.2.65-1.5-.7-2.59.61-.39,1.51,1.42,1.66,2.36a8.48,8.48,0,0,0,1.8-2.34,7.3,7.3,0,0,1,6,3.09c1.4.24,2.21-.89,3.77.06a4,4,0,0,0,0-3.46c-.16-.84.91,1.79,1.35,2.33.46-.85,1.73-.46,1.95-.76.36.09.21.6.22,1,.7.15,1.18,0,1.31-.5.41.13.18.8.19,1.27a1.6,1.6,0,0,0,1-.84c.4.66,2,1.63,1.58-.16,1.16-.1.24,1.52,1.1,1.67,1-.4-1-1.27.18-1.87.31.26-.06,1,.47,1.62.42-.07.54-.5,1-.53.2-.74-1.43,0-.84-1,.58.74,1-.18,1.53.46-.77-1.21-.06-.88.21-2.18.05,1.78,3.58,1.4,2.77.58.49-.51.93,1.43,1.47,1.08.47-.09-.09-.41.09-.93.68-.08,1.22,2,1.53.46.35.09.2.59.22,1,.37,0,.31-.55.4-.91a6.34,6.34,0,0,0,1.43,1.4c.44-.06.34-.76.44-1.22.36.09.21.59.22,1,.93-.19.39-.44.43-1.22,1.09.15.6,1.61,2.06,1.46-.8-1.69,0-.14,1.33-.82-.88,1.16.5-.3.22,1,.75-.89,1.78.12,3.46,0,4.11,2.36,8.55,3.49,10.73,6.06a87.68,87.68,0,0,1,10.83,1.67c-.06-.71-1.52-.27-2.14-.52,5.37.2,10.19,1.55,16.87,1,.81,0-.37-.58.12-1.24.65.42.94,1.14,1.75,1.42.17-.81-1.19-.36-.82-1.33a7.4,7.4,0,0,1,1.82.23V0H0Z"/></g></g></svg>