<svg xmlns="http://www.w3.org/2000/svg" viewBox="0 0 876 24.79"><defs><radialGradient id="a" cx="438" cy="161.58" r="330.12" gradientUnits="userSpaceOnUse"><stop offset="0" stop-color="#fafafa"/><stop offset=".36" stop-color="#f7f7f7"/><stop offset=".61" stop-color="#eee"/><stop offset=".83" stop-color="#dfdfdf"/><stop offset="1" stop-color="#ccc"/></radialGradient></defs><g data-name="Слой 2"><path d="M876 8.23c-2.36-.44-3.67-2.24-6.32-2.9-.06.44-.13.88.22 1-.35.81-.68-.73-.84-1-.32.31-1.16 0-1 .85-.34-.39-.48-1-1.5-.78.38 1.43-.63-.15-1.08 1.47-.52-1-1.56-.41-2.12-.83q-.2 1 .84 1c-.57 1-.7-.72-1.53-.46.18.33.69.39.54 1-1.81-1.41-5.85-2.6-7.64-2.3.08.36.47.83.59.37 0 1.54-3.19-1.63-4.29-1-.23-2-5.14-.37-7.51-.41-.45 0-.88-.71-.87-.71s-3.47 1.84-4.42.2c.15 1-4.2-.06-3.71-.67-1-.24-.8.89-1.93.44.22.49 1 .55 1.5.78-2.92 1-4.88-.71-6.73-1.91a.86.86 0 00-.71.88c-.68 0 0-1.12-.16-1.6-.95.83-1.69.33-2.3 1-2.07-2-5.44-.81-6.45-1.56.23.47-1.16.54-.72.87-1.5.61-1.22-.93-3.05-.92-.7.14.49 1.09.82 1.33 0 .79-1.71-1.55-3-1.54-.78.21.62 1 .13 1.9-1.59-1.19-.54-1.28-1.65-2.37-.44.06-.34.76-.44 1.22-1.34-1.33-2.71-2.08-4-.7-.16-1.88-1.41 2.41-1.12.63-1 .91-1.59-2-2.3-1-.65-.21-.19.56 0 .8l.08-.05c.07.18 0 .15-.08.05-1.32.93-3.22-1.77-3.62.42.18-1.25-.42-.79-1.63-.73-.56 0-.18-.65 0-.86l-.07.11c-.68-.3-.57.74-1.44.6-1.58 1-3.27-.24-4.82-.89-.8.14.5.88.16 1.59-.12-.6-1.47-1.32-1.27.19-.73 0-.26-.94-.85-1s-1.7 1.92-1.9.13c-.58 0-.29 1-.74 1.19-1-.23.64-1.66-.16-1.59-1.26-.22-.23.63-.43 1.21-.22-1.24-2.66.16-1.78-1.11-1 .29-1.77 1.1-2.86.35.69.7.26.53.47 1.62-1.08-.43-1.55.53-2.77-.58-.58.57 0 .4-.12 1.25-1.43.52-5.65-2-6-.26-1.47.32-3.42-1.25-4.7-.14-1-1.39-2.71 0-4.3-1-.12.53.45.86-.09.94-1.09-.15 0-.46-.5-1.31-2.32.28-.45-.48-2.77-.58 0 .37.54.32.9.4-2.6.4-2.71-.29-4.33-.73-.67-.12-.25 1.09-.46 1.53-.66.38-4.26-.86-3.17.32-.75.91-3.09-2-3.49.29-.63-1.17-2.16-.44-1.43.48a1.12 1.12 0 01.4.37 1.83 1.83 0 01-.4-.37 8.08 8.08 0 00-5.76-.86c.17.34.68.39.53 1-.73.6-1.75 0-2.15-.53-.48 1 1 .34.51 1.31-1.19-.05-2.79-.59-2.9.66-.85-.73-.31-1.43-1.42-1.43-.78.11 1 .7-.12 1.24-.6-2.1-4.93-.7-6.95.28 1.31 1.68-2.12 3.37-3.86 3.5h-.05.09c.1-.2.22-1.4.51-1.31-.78-.16-2 2-2.43 1.13-1.1 0 .43-.56-.43-.78-.71-1.08-2.67-.05-2.28-.42-.94-.21-.75-1.05-1.09-.54-1.89-1.72-5.64 3.22-6.26 1.72-.48.21-.54-1-.77-.51-1.32 0-1.68-.71-2.74-.89-1.76 2-4.91 0-6.41 1.27.61.7 1.5 1.17 1.41 1.7-.59.83-1.1-.79-1.81-.8a.86.86 0 00.88.71 6.28 6.28 0 01-2.87.36c.05-.81-1.41-.59-.5-1.31-.55.09-2.92-.15-1.62.47-.32.7-1.45-.3-1.49-.77a1.37 1.37 0 00-.75 1.18c-1-.79-2 .41-2.8-.27-.37-.13-1.16.8-.4.91-.5.67-1-1.08-1.44-1.4-1 0-1 1.15-2.27.73 0 .3.36.27.59.37-1-.14-2.41 1.23-3.08-.61-1 .39.28 1.25-1.14 2.09 1.1 0 1.06-.27 1.86.18-2.87.69-4.74-2.3-6.67-2.53-.49 0-.12.63.36.9-1.79-.5-5.18-2.21-4.84-.08-2.29-1.14-3.93.19-6.75-1.59.12.92-1.73-.05-2.55.38 1.25.72.35.83-.18 1.87 0-1.1-2.06-.16-3.12-.3-2.55-.35-5.31-1.72-7.41-1.35-.46.27.08.53-.72.88-2.74-1.93-4.75.37-6.65.61.2 0-.49-1.12-1.84-.49-2.46 1.14-6.93.15-10.62-.71-1.06-.12-2.49 1.13-3.46 0 .28 1-1.44-.07-1 .53-.92.23-2.77-1.56-3.14 0-.59-1.93-2.36-.81-3.65-1.29 1.26.46-.82 1 .38 1.27l.43.07a3.21 3.21 0 01-.43-.07 37.94 37.94 0 01-7.51-2.28c-1 .78-2.29 1-2.39 2-.64-.14 0-1.37-.47-1.61-.78-.44-1.43.83-1.22-.43-.36.4-1.75.94-.09.93-1 .83-2.68-.52-3.46 0-.16.52.19.61.57.69-2.85-.84-4.6 1.35-9.46.34-.49-.1.33-.57-.25-.66-1.2-.52-.74 1-1.93.45.18.93.43.39 1.21.43-1.12 1.83-3.76-.61-5.57-.85-1.41.44-1 .94-1.77 2-2.57.07-5.7-.87-9.25-1.84-.36-.1-1.09.25-1.28.19-.86-.28-1.88-1.3-.62-.06-1.4-.8-4-1.6-6-3.09-1.08.19-1.77.86-2.94.93.3.22-1.15 1.86-1.09 1.82-.21.15-.93-.09-.94-.09a2.57 2.57 0 00-.36.27c.19.42-.46.43 0 0a.94.94 0 00-.26-.33c-.5-.45-3.13.42-2 1.07-3.94-1.1-6.39-.6-10.44-2.58-.2.43 1.15.88.23 1-2-2.76-5.53.92-7.73-1.37-.37 0-.31.54-.4.9-.52-1.34-1.33-.66-2.71-1.2-.67 0 .35 1 .5 1.3-1.08.1-1.74-1.21-3-1.54-2.23 1-4.52.44-7.25.24-.14.46-.47.52-1.06 1.16-1.53-1-1.5.25-2.24.41-4.07-.86-13.65-2.61-17.9-.16-.39-.1-1.44-1-1.52-.46-.44-.18 0-.27.06-.62-4.31.39-8.86-3-12.34-2.45a3.05 3.05 0 002.15.52c.11.3.22.59.56.68-.58.64-1.67-.21-1.05 1.16-2.61-1.62-4.49.67-6.82-1-.67-.2-1.81.76-1 1.15-1.43.31-3.08-1.65-4.49-2.31-.58.22-.52 1.22-1.65.78a2.19 2.19 0 00.87.71c-.23.17-3.1-1.11-2.34-1.79a2 2 0 01-2.18-.21c-.57 1.14 1.39.19.81 1.33-.31-.4-2.3-1-1.92.44-1.34-1.17-5-1.41-6.11-1.84-2.22-1-4.14-.24-6.72 1.23 0 .31.36.28.59.38-2.91.65-3.22-1.42-6.48-1.26a1.36 1.36 0 001.19.74c.47.79-1.89-.36-2.12-.83-.61.6-1.13.44-.77 1.5-.63-.15-.53-.9-1.16-1.06-.47.1.09.41-.09.94-2.62-.17-9.2-2.48-8.86.71-3.12-.41-4.91.82-7.32.87a.68.68 0 01.63-.54c-1.74-.31-3.21-2.34-5.65-2.77-2.64-.47-6.77 2.06-8-1.41a1.7 1.7 0 01-1.27.19c-.18-.61-.91-.3-.22-1-1.12-.18-3 .7-4.39-.11-1.12 2.16-5.37-.23-6.13 1.61-.51-.66-2.91-2.61-3.4-.64-.24-1.45-5.11-.84-2.27.72-.52.13-2-1.39-2.62-2.14-1.07.18-.1.69-.74 1.19-.4-1.38-.75.55-2.43-.87.07.7-1.53.73-1.77 2-1.4-1.36-1.6-.55-3.64-1.29-.53 1-4.26 2.67-5.73.7-3.89 2.13-8.83 1.77-12.92.33-1.83-.13-4.09 1.6-6.62.3-.4 0-.38.59-.06.62-2.29 0-6.7-.42-8 1.74-1.9-2-9.26-.07-11.77-1.76-5.25.71-9 3-15.53 1.33-.93.72-.43 1-.18 1.87-3.65-2-8.77-1.43-11.11 1.12a1.45 1.45 0 00.4-.9c-3.05.58-7 1.22-10 2.81-1.15-2.43-4.92-1.25-6.64-2.84-1.67 2.13-8.42 1.92-12 .72-.25 1.56-3.9-.07-5.42.73.23-.58-4.79-1.34-6.22-.6-.07-.54.3-.56.68-.56-3.29-1.38-5.38-1.33-8.63-1.77a1.7 1.7 0 01.19 1.27c-.26-1.12-3-1.86-2.77-.58-.62-.06-.31-.89-1.19-.74-.6.88-1.85 1-2.39 2a21.5 21.5 0 01-2.21-.84c-.8 0 .38.58-.12 1.25-2.89-.29-6.13-2.24-6.85-.66-.61-.09-1-.43-1.92.44l.09-.93c-1.81 2.34-4.57 1-7.63.83-.37 0-.32.54-.4.91-4-.83-5.11.6-8.09-.78-.41-.11-.29.6.08.89l.45.1a.46.46 0 01-.45-.1c-2.79-.64-5.41.28-8.05.22-.17.91.61 1 .44 1.93-.6.53-.89-.22-1.52-.46.11.29.22.58.56.68-.2 1.2-2.44-.82-2.61 1-2.33-1-5.15-.42-8-2-2.33 1.12-5.65.22-8.1-.78a6.39 6.39 0 01-4.53 1.45c-.64 1.8-2.12 1-3.13 3.15-.35-2.15-2.63-.34-3-1.54-.37 0-.32.54-.4.9-3.11-1.62-6-.65-8.88-2.43-1.59 1.79-2.93.52-5.1.77q-.18 1 .84 1c-.87.87-4.06-.61-.93-.09a2 2 0 01-.16-1.59c-.58 0-.3 1-.75 1.19-.85-1.91-3.33-1.39-5.2-1.45.43.41.68 1 1.47 1.09-3.4-.26-7.12-1.13-10.71.22-.43-.31-.94-.56-.81-1.34-.44.64-1.23 1.9-2 1.07.64.52-.47.72.22 1-1.82-.75-2.6 1.37-5.38.43-.5.11-.06.32.28.34-4.31 2.93-11.65-4.34-17.5-1.06-2.3-1-4.89 0-7.13-1 1 1.72-3.5-1.3-5.1.76.32-1-.58-.53-.63-.06-.42-.15 0-.55.37-.59a2 2 0 00-.87-.71c-.14.38-.51 1.1-2 .75a2.65 2.65 0 01.13 1.9c-.52 1-.2-1.13-.16-1.59-4-1.64-5.81 1.69-8.27 1.09-.3.82.58.66.84 1-.29.67-1.56.9-1.93.45.16-.48.52.32.65-.26 0-.34-.6-.27-.56-.68-1.65.8-2.22.74-4.11.23a3.15 3.15 0 00-1.11 1.78c-1.39-.09.35-.77.15-1.56-1.51 1.82-2.61.22-3.73 2.79-.38-.44-.53-1-.93-.09-.45-.19.16-.39.09-.94-1-.2-.48 1.5-2 .76 0 .58 1 .29 1.19.74.59 1.05-1.78-1.2-2.19-.21-.41-.14-.18-.8-.19-1.28-.3.15-.55.83-.65.26-.47.09.09.41-.09.93-.59-.19-.13-1.23-1.15-1-.75 0 .26.87.53 1-.53 0-2.09-1.52-2.25-2.73-.44.63-1.53.46-1.71 1.41-.45-.52.42-1.54-1.09-1.68-.24.86-.32-.15-.72.87-.26-1-1.22 0-.53-1-.61-.17-1 0-1 .53a14.6 14.6 0 01-1.44-1.39c-1.29.26-1.69 1.08-3.17.32-.36 1.34.64-.2.56.68-1.34 1.45-3.35.21-4 2.13-3.48-1.56-9.1-.86-10.32-3.82-.44 0-.34.75-.44 1.21a5.28 5.28 0 00-2.65-1.83c1.65 1.21-2.31.23-2.46-.55-.43.06-.33.76-.43 1.22-.72-.23-1.5-1.5-3.39-.65-.36-.08-.21-.59-.22-1-.6.88-4.08-1.16-5.39.42a23.55 23.55 0 01-1.61-1.76 2.14 2.14 0 00-.72.87c2.35.2-.65 1.49.69 2.58-.61.39-1.51-1.42-1.65-2.36a8.44 8.44 0 00-1.8 2.34 7.28 7.28 0 01-6-3.09c-1.39-.23-2.21.9-3.77-.05a4.06 4.06 0 000 3.46c.16.83-.91-1.8-1.35-2.33-.46.85-1.74.46-2 .75-.36-.08-.21-.59-.22-1-.7-.16-1.18 0-1.31.5-.41-.14-.18-.8-.19-1.28a1.63 1.63 0 00-1 .85c-.4-.67-1.95-1.64-1.59.16-1.15.09-.24-1.52-1.09-1.68-1 .4 1 1.27-.18 1.87-.31-.26.05-.94-.48-1.62-.42.07-.54.5-1 .54-.19.73 1.43 0 .84 1-.58-.75-1 .18-1.52-.46.76 1.2.06.87-.21 2.18 0-1.78-3.58-1.4-2.78-.58-.49.51-.92-1.44-1.46-1.09-.48.09.08.41-.09.94-.69.08-1.22-2-1.53-.47-.36-.08-.21-.59-.22-1-.37 0-.32.54-.4.9a6.14 6.14 0 00-1.41-1.3c-.43.05-.33.75-.43 1.21-.36-.08-.21-.59-.22-1-.93.18-.4.43-.43 1.22-1.09-.16-.6-1.61-2.06-1.46.8 1.69 0 .14-1.34.81.88-1.16-.5.3-.22-1-.74.88-1.77-.13-3.45 0C36.39 7.49 32 6.35 29.78 3.79a87.86 87.86 0 01-10.84-1.68c.07.71 1.52.28 2.15.52-5.38-.19-10.2-1.54-16.88-1-.81 0 .38.58-.12 1.25-.65-.42-.93-1.14-1.74-1.43-.18.81 1.18.36.81 1.34A11.58 11.58 0 010 2.21v22.58h876z" fill="url(#a)" data-name="Слой 1"/></g></svg>