<svg xmlns="http://www.w3.org/2000/svg" viewBox="0 0 11.76 43.93"><g data-name="Слой 2"><g data-name="Слой 1"><path d="M9.29 27.53V12.2c.14-2.41-.36-5.31-2.73-5.61C4.05 6 2.62 8.26 2.73 10.77v22.8c.16 2.52-.44 5.27.72 7.24A4 4 0 009.21 42c1.72-1.54 1.38-4.3 1.4-6.82V19.87c-.08-5 .16-10.37-.17-15.18a4.69 4.69 0 00-5.16-3.51 4.77 4.77 0 00-4.16 4.68H0A5.92 5.92 0 015.14.06a5.82 5.82 0 016.4 4.36c.39 5.35.11 10.29.2 15.45V35.2c-.09 2.39.5 5.49-1.8 7.67a5.08 5.08 0 01-7.48-1.49c-1.42-2.63-.67-5.32-.87-7.81V10.73a6.84 6.84 0 011.17-3.95 4.07 4.07 0 014-1.3 4 4 0 013.17 2.74 10.87 10.87 0 01.48 4v15.31z" fill="#2b2b2b"/><path d="M9.33 27.53V12.2C9.47 9.79 9 6.86 6.57 6.54a3 3 0 00-3 .91 5.74 5.74 0 00-.91 3.32v22.8c.16 2.52-.45 5.27.72 7.26a4 4 0 005.84 1.22c1.75-1.57 1.4-4.34 1.43-6.85V19.87c-.07-5.05.16-10.36-.16-15.19a4.75 4.75 0 00-5.21-3.55 4.83 4.83 0 00-4.2 4.73h-1A5.86 5.86 0 015.15.12a5.77 5.77 0 016.34 4.31c.39 5.33.11 10.28.19 15.44V35.2c-.08 2.39.49 5.48-1.77 7.63a5 5 0 01-7.4-1.48c-1.41-2.6-.67-5.29-.86-7.78V10.73A6.7 6.7 0 012.8 6.81a4 4 0 014-1.28 4 4 0 013.08 2.71 10.93 10.93 0 01.48 4v15.29z" fill="#3e3e3e"/><path d="M9.38 27.53V12.2c.14-2.41-.38-5.38-2.8-5.7a3 3 0 00-3 .93 5.74 5.74 0 00-.92 3.34v22.8c.16 2.52-.45 5.26.72 7.28a4.05 4.05 0 005.91 1.24c1.78-1.6 1.41-4.38 1.44-6.89V19.87c-.07-5.05.17-10.35-.16-15.2a4.78 4.78 0 00-5.3-3.58A4.86 4.86 0 001 5.86H.11A5.79 5.79 0 015.16.17a5.71 5.71 0 016.28 4.28c.38 5.3.1 10.27.19 15.42V35.2c-.08 2.4.48 5.47-1.76 7.58a5 5 0 01-7.32-1.45c-1.39-2.57-.66-5.27-.85-7.76V10.73a6.7 6.7 0 011.14-3.88 4 4 0 013.9-1.27 3.92 3.92 0 013.09 2.68 10.79 10.79 0 01.47 3.94v15.33z" fill="#525252"/><path d="M9.42 27.53V12.2c.14-2.4-.35-5.41-2.83-5.74a3.09 3.09 0 00-3.06.94 5.89 5.89 0 00-.93 3.37v22.8c.17 2.52-.45 5.26.73 7.31a4.11 4.11 0 006 1.24c1.8-1.62 1.42-4.42 1.46-6.92V19.87c-.08-5.06.16-10.34-.17-15.21a4.81 4.81 0 00-5.35-3.61A4.91 4.91 0 001 5.86H.16a5.75 5.75 0 015-5.64 5.68 5.68 0 016.23 4.24c.38 5.27.1 10.26.19 15.41V35.2c-.08 2.41.47 5.46-1.74 7.55A4.92 4.92 0 012.6 41.3c-1.38-2.54-.66-5.24-.85-7.73V10.74a6.66 6.66 0 011.13-3.86 3.9 3.9 0 013.85-1.24 3.86 3.86 0 013 2.64 10.63 10.63 0 01.47 3.92v15.33z" fill="#656565"/><path d="M9.46 27.53V12.2c.14-2.39-.34-5.44-2.87-5.79a3.11 3.11 0 00-3.09 1 5.93 5.93 0 00-.94 3.4v22.8c.16 2.51-.46 5.26.74 7.33a4.13 4.13 0 006 1.25c1.82-1.64 1.43-4.45 1.47-6.95V19.87c-.07-5.06.17-10.33-.17-15.22A4.87 4.87 0 005.26 1 5 5 0 001 5.86H.22a5.69 5.69 0 015-5.59 5.62 5.62 0 016.16 4.2c.38 5.25.11 10.26.19 15.4V35.2c-.07 2.41.47 5.45-1.72 7.5a4.87 4.87 0 01-7.16-1.43c-1.37-2.51-.64-5.21-.83-7.7V10.74a6.46 6.46 0 011.1-3.83 3.85 3.85 0 013.76-1.22 3.81 3.81 0 013 2.61 10.71 10.71 0 01.47 3.9v15.33z" fill="#787878"/><path d="M9.51 27.53V12.2c.14-2.39-.35-5.48-2.91-5.83a3.18 3.18 0 00-3.14 1 6 6 0 00-.94 3.42V33.6c.16 2.51-.47 5.25.74 7.35a4.19 4.19 0 006.11 1.27c1.84-1.67 1.44-4.5 1.48-7V19.87c-.07-5.06.17-10.32-.17-15.23A4.9 4.9 0 005.26 1 5 5 0 00.91 5.86H.27A5.63 5.63 0 015.18.33a5.55 5.55 0 016.1 4.15c.38 5.23.11 10.26.19 15.39V35.2c-.07 2.42.46 5.43-1.7 7.46a4.81 4.81 0 01-7.08-1.42c-1.36-2.47-.64-5.18-.83-7.67V10.74A6.53 6.53 0 013 7a3.79 3.79 0 013.71-1.26 3.75 3.75 0 013 2.58 10.57 10.57 0 01.46 3.88v15.33z" fill="#8b8b8b"/><path d="M9.55 27.53V12.2c.14-2.38-.34-5.51-2.94-5.87a3.19 3.19 0 00-3.18 1 6 6 0 00-1 3.44v22.81c.17 2.51-.47 5.25.75 7.37a4.23 4.23 0 006.18 1.28c1.86-1.7 1.46-4.53 1.5-7V19.87c-.08-5.07.17-10.31-.17-15.24A5 5 0 005.25.92 5 5 0 00.86 5.86H.32A5.59 5.59 0 015.18.38a5.51 5.51 0 016.05 4.12c.37 5.19.1 10.24.19 15.37V35.2c-.07 2.43.44 5.43-1.69 7.42a4.75 4.75 0 01-7-1.4c-1.35-2.45-.64-5.15-.82-7.65V10.74A6.46 6.46 0 013 7a3.74 3.74 0 013.7-1.2c3.08.47 3.55 4.08 3.39 6.4v15.33z" fill="#9f9f9f"/><path d="M9.6 27.53V12.2c.15-2.38-.33-5.55-3-5.92a3.25 3.25 0 00-3.22 1 6 6 0 00-1 3.47v22.81c.17 2.51-.47 5.24.75 7.4a4.28 4.28 0 006.25 1.28c1.88-1.72 1.47-4.57 1.51-7V19.87c-.08-5.07.17-10.3-.17-15.25A5 5 0 005.25.87a5.09 5.09 0 00-4.43 5H.38A5.53 5.53 0 015.19.43a5.46 5.46 0 016 4.08c.37 5.17.1 10.24.18 15.36V35.2c-.06 2.43.44 5.42-1.66 7.38a4.71 4.71 0 01-6.92-1.39c-1.33-2.41-.63-5.12-.81-7.62V10.74A6.42 6.42 0 013.05 7a3.7 3.7 0 013.64-1.15c3 .46 3.5 4 3.35 6.35v15.33z" fill="#b2b2b2"/><path d="M9.64 27.53V12.2c.14-2.37-.34-5.58-3-6a3.29 3.29 0 00-3.26 1 6.16 6.16 0 00-1 3.5v22.81c.17 2.51-.48 5.24.76 7.42a4.31 4.31 0 006.31 1.29c1.9-1.74 1.48-4.6 1.52-7.08V19.87c-.07-5.08.18-10.29-.17-15.26A5.05 5.05 0 005.24.83a5.13 5.13 0 00-4.47 5H.43A5.47 5.47 0 015.2.49a5.39 5.39 0 015.93 4c.36 5.15.1 10.23.18 15.35V35.2c-.06 2.44.43 5.41-1.65 7.34a4.64 4.64 0 01-6.83-1.38c-1.32-2.38-.63-5.09-.83-7.59V10.75a6.4 6.4 0 011-3.7A3.64 3.64 0 016.69 5.9c3 .45 3.45 4 3.29 6.3v15.33z" fill="#c5c5c5"/><path d="M9.68 27.53V12.2c.15-2.37-.33-5.61-3-6a3.32 3.32 0 00-3.3 1 6.12 6.12 0 00-1 3.53v22.81c.17 2.51-.48 5.24.77 7.44a4.36 4.36 0 006.37 1.31C11.39 40.55 11 37.67 11 35.2V19.87c-.08-5.08.17-10.28-.18-15.27A5.08 5.08 0 005.23.79a5.16 5.16 0 00-4.5 5.07H.48A5.43 5.43 0 015.2.54a5.33 5.33 0 015.87 4c.37 5.11.11 10.22.19 15.33V35.2c-.06 2.44.42 5.4-1.63 7.3a4.6 4.6 0 01-6.76-1.36c-1.3-2.35-.61-5.07-.8-7.57V10.75a6.43 6.43 0 011-3.67A3.6 3.6 0 016.68 6c2.93.44 3.4 3.91 3.25 6.25v15.28z" fill="#d8d8d8"/><path d="M9.72 27.53V12.2c.15-2.36-.33-5.65-3.08-6a3.39 3.39 0 00-3.35 1 6.13 6.13 0 00-1 3.55v22.81c.17 2.51-.49 5.23.77 7.46a4.4 4.4 0 006.44 1.32c1.95-1.79 1.51-4.68 1.56-7.15V19.87c-.08-5.09.18-10.27-.18-15.28A5.13 5.13 0 005.23.74 5.22 5.22 0 00.69 5.86H.54A5.36 5.36 0 015.21.59a5.29 5.29 0 015.81 4c.36 5.09.1 10.21.18 15.32V35.2c-.06 2.45.42 5.39-1.61 7.26a4.55 4.55 0 01-6.67-1.35c-1.29-2.32-.61-5-.79-7.54V10.75a6.29 6.29 0 011-3.64A3.55 3.55 0 016.67 6c2.88.43 3.33 3.85 3.21 6.2v15.33z" fill="#ececec"/><path d="M9.77 27.53V12.2c.15-2.36-.33-5.68-3.12-6.09a3.41 3.41 0 00-3.39 1.07 6.25 6.25 0 00-1 3.57v22.82c.18 2.51-.49 5.23.78 7.48a4.44 4.44 0 006.51 1.33c2-1.81 1.52-4.72 1.57-7.18V19.87c-.08-5.09.18-10.26-.17-15.29A5.18 5.18 0 005.22.7 5.26 5.26 0 00.64 5.86H.59A5.33 5.33 0 015.22.64 5.24 5.24 0 0111 4.56c.36 5.07.1 10.21.18 15.31V35.2c-.06 2.46.4 5.38-1.59 7.22A4.49 4.49 0 013 41.08c-1.28-2.28-.61-5-.79-7.51V10.75a6.15 6.15 0 011-3.6 3.47 3.47 0 013.45-1.09C9.5 6.48 10 9.85 9.82 12.2v15.33z" fill="#fff"/></g></g></svg>