<svg xmlns="http://www.w3.org/2000/svg" viewBox="0 0 111.69 7.73"><defs><linearGradient id="gr"><stop offset="0%" stop-color="#eee"/><stop offset="50%" stop-color="#f5f5f5"/><stop offset="100%" stop-color="#eee"/></linearGradient></defs><path d="M0,7.73H111.69V2.11C111.58,1,110,2.32,110,1.86c-.33,0-.87-1.89-1.23-.55-1.14-.88-1.94-.27-2.73-.2-1.12-2-1.43-.79-2.76-.05-.91,2.24-1.72.59-2.33.3-.37.21-.67-.07-.69.26-.19-1-.75-2.57-.82.89a7.34,7.34,0,0,0,.17.9,1.77,1.77,0,0,0-.47-.5.61.61,0,0,0-1.17.19c-1.06.14-1.57,1.06-2,1.13-.46,1.6-.71-.69-1.42.78-.62.68-1,.73-1.52.47-.35.07-.67.62-1,.19-.41.07-.61,1.12-1.08.66C90.31,5,90,7,89.6,6.11c-.46-1.06-.94-.6-1.42-.12-.5-.93-.92,1.38-1.41-.19-.45.49-.75,1.11-1.14-.48-.87.21-1.85-.09-2.85-1.38-.89-.12-1.81-1.67-2.73-.06-.92-1-1.84.87-2.74.07-1,.92-2-.06-3,0-1.1-1.5-1.77-2.7-2.7-.9-.69-.83-1.27-2.3-2.13-.67-.37-1.32-.83-.43-1.19,0-.65.27-1.15,1.08-1.84.56-1.31-1.87-2.65.77-4,0-.31-.44-.64.66-1,0-.68-.23-1.25-.69-1.9.52a3.62,3.62,0,0,1-1.43,0,5.63,5.63,0,0,1-2.35.28c-1.11-.47-2,1.06-3-.6-.75-.6-1.54-1.58-2.38-1-.57-.12-1,.07-1.61-.11-1-.61-1.65-1.37-2.62-.4-.89,0-1.64,1.22-2.49-.21-1.34-.1-2.63-1.68-4-.32-1,0-1.94,2.46-2.9,0a3.5,3.5,0,0,0-3.43,1.34c-.5-.59-1-.59-1.48.24-.58-1.13-.83.53-1.36.75-.21.78-.57-.66-.79.11-.46-.52-.88,1.36-1.34.43A10.29,10.29,0,0,1,26.3,4c-1.07.75-2.14-1.44-3.2,0-1.16.19-2.21-.26-3.37.26-.34,1-.8.57-1.09.11-.33.14-.18.78-.6.7A3.07,3.07,0,0,1,16.1,5c-.6,0-1.19-.27-1.79,0-.58-1.09-1-.74-1.94,0-.35-.41-1.13.21-1.17.29-.47-.13-1.17-.8-1.22-.06-.06.41-.8-1.55-1.29-1.17-.62-1.06-.86.17-1.27-.29,0-.13-.17-1.08-.6-.12.2-1.62-.19.74-.24-.32-1.12-2.15-1.45-3.2-2.71-2C3.09.52,3,2.09,2.33.66,1.46,1.38.93.84.17.34L0,.18Z" fill="url(#gr)"/></svg>