<svg xmlns="http://www.w3.org/2000/svg" viewBox="0 0 111.69 6.72"><defs><linearGradient id="gr"><stop offset="0%" stop-color="#eee"/><stop offset="50%" stop-color="#f5f5f5"/><stop offset="100%" stop-color="#eee"/></linearGradient></defs><path d="M111.69,2.67l-.34-.08c-.48,0-.15-.34-.95-.21-.32-.3-1.63.28-2.37,0a26.65,26.65,0,0,1-3.22,0c-.72.54-2.27-.55-3.22,0-1.23.89-2.15-.32-3-.56-.37.79-1.23-1.17-1.57,0-.74-.69-1.92.16-2.68,0-1.11.18-2.12-.59-3.13-.45-1-.84-2-.09-3.14-.35C86.83.46,85.74.8,84.5,1.34c-.9-.29-1.75-1.14-2.6.27-.85-.5-1.7,0-2.62.26s-1.76,1.22-2.64,0c-.88.85-1.76-.72-2.64,0a3.43,3.43,0,0,1-3.58-.59c-1-.2-1.08-.46-2.14-.74C66.71.21,65.1.65,63.48.46c-1.61,1.38-3.23-.58-4.81.09C57.23.1,55.53-.53,54.2.8s-2.66,1.08-4.28,1.07c-1.13.81-2.46.09-3.41.24-.43-.55-.8.34-1.26.73s-1.19.27-1.77.81c-.71-.83-1.09.36-2.07.86-1.45.06-3,0-4.43,0-1.21-.09-2.41.91-3.62.47-1.2-.05-2.41-.52-3.64.31-.63.65-1,.75-1.61-.22-.7.9-1.38.58-2.09-.06-1.08-.75-2.37-1.07-3.43,0-1.29-.38-2.42.48-3.76-.28-.52.28-1.58-.19-2,0-.29.36-.44-1.83-.62-.69-.92-.4-2.57-1.48-3.38-1.12C11.73,2,11.41,2.58,9,2.86c-1.15-.24-2.18-.95-3.74-.29-1.16-.69-2.9.1-3.68.34-.3.1-.93.35-1.54.5V6.72H111.69Z" fill="url(#gr)"/></svg>