<svg xmlns="http://www.w3.org/2000/svg" viewBox="0 0 111.69 7.17"><defs><linearGradient id="gr"><stop offset="0%" stop-color="#eee"/><stop offset="50%" stop-color="#f5f5f5"/><stop offset="100%" stop-color="#eee"/></linearGradient></defs><path d="M111.69.54c-.37.16-.77.37-1.35.62a3.59,3.59,0,0,0-2.85,0c-.37-.74-.29.48-1.33,0-1.42,0-1.33-.17-1,.82.23,0-.16.44-.48.6-2-.72-2.27-.23-2.18.06.56,1.31-1.13-.47-2.18,0a24.55,24.55,0,0,0-2.63,0c-1-.52-1.56-.19-2.32-.76-.12.5-.26-.11-.43-.69-.26-.18-.8-.05-1.06,0A4.58,4.58,0,0,1,91.48,2.5c-.85.84-1.73.29-2.56.22s-1.19.21-2.06.44c-.71-.43-1.43.72-2.15,0-1,1.09-2.25,2-3.18,0-.46.56-.72-.48-1.22-.55s-.83-.62-1.21,0c-.64.66-1.28,1.11-1.92,0a4,4,0,0,0-3,0,24.41,24.41,0,0,1-2.51.58c-1-.5-2,.49-2.91-.29-.89-.16-1.94.78-2.69-.56-.63-1-1.19-.8-1.94-1.39C63.77.06,63.34.42,63,.59c-.48-1-.8,0-1.32-.36A4.33,4.33,0,0,0,59.46.06c-.14,0-.35-.17-.63.54-.3-.41-.6.05-.89.23-.73-.25-1.44.24-2.16,0-1-.37-2,1.08-3.05.29a9.81,9.81,0,0,1-3.06,0c-1,.07-2,.81-2.9,0-.7,1.71-1.27-1.24-1.94-.6C43.6-.63,42.14,2.74,41,.81c-.8.54-1.58.21-2.35,0-.78.53-1.55-1.08-2.33-.26C35.66-.28,35,.2,34.42.58a3.66,3.66,0,0,0-2.36,1.18c.34.88,1.33,1.94,1.41,1.76-1.23,1.35-2.6-.24-3.81.12a2.91,2.91,0,0,1-2.28.76c-.76-.6-1.53-.28-2.31.51-.65-1.87-1.19,1.29-1.8-.49C22.69,5.57,21.85,3.2,21.21,4c-.43.16-.51-1-.88.45-.66,1.18-1,1.26-1.56-.12-1,.55-1.3,1.8-2.19-.06-.64,1-.94,1.16-1.56-.24-.92-1.18-1.78,1.57-2.39-.17-1.27-2.09-2,.18-2.22-1.27-1.16-.42-.37-.17-1.71,0C8.45,1.63,7.31,1.87,6.53,2c-.26.84-1.33.71-2-.26-.45.09-1.92-.18-2,0C.77,2.07,1.15,2.83.92,2.84c-.19.44-.35.23-.92.23v4.1H111.69Z" fill="url(#gr)"/></svg>