<svg xmlns="http://www.w3.org/2000/svg" viewBox="0 0 111.69 8.35"><defs><linearGradient id="gr"><stop offset="0%" stop-color="#eee"/><stop offset="50%" stop-color="#f5f5f5"/><stop offset="100%" stop-color="#eee"/></linearGradient></defs><path d="M111.69,1c-1,.66-.54.61-2.22.47-1.13,1.29-1.74-.54-2.54.16-.68-1.18-2.45,1.31-3,0-1.5.29-1.7.91-3,.75a2.92,2.92,0,0,0-3.07.57c-.64,1.76-.78,1.92-.94-.32-.21-.24.56-1.26-.44-.89C95.34,1,95.62,2.29,94,1c-1,0-2-.45-2.69.13s-1.17,1.84-1.76,0c-.59-.17-1.18.19-1.77,0-1-.12-2.29-.74-3.3,0-.57,3-.69,1.15-1.14.87-.27-.25-.58-.36-.88.36-1.43.24-2.84.86-4.34.77-.72.17-1-.25-1.58-.59-1-.63-2.23.74-3.41-1-.26-1.16-.61,1.07-.88.07A9.07,9.07,0,0,0,69.15.85c-.65-.67-1.22.48-1.9-.22-.68.46-1.48,0-2.14.53C64.29,1,63.93,1,63,2.13c-.52.73-1,1.08-1.54,0-.42-.18-1.18.66-1.56,0-.22-.66-.35-1.54-.53-.68A1.08,1.08,0,0,0,58,.58c-.59.84-1.3-.48-1.85.15C55.54.57,55,1.6,54.43.86a28,28,0,0,1-4.49,0c-.63-.09-.82.17-1.28.31,0-1.75-.11.06-.16.35-.23-.1-.47-.3-.73.11-.42.59-.83-.46-1.24,0-.56-1.07-1.05.1-1.46.9a11.28,11.28,0,0,0-2.14,1.11c-1,.17-2-.38-3,0a8.69,8.69,0,0,1-4.23.52c-.84.85-1.4,0-2.27.51-1.09-.87-2.18.54-3.27,0-.79.55-2.88-.23-3.23.72,0,.34-1.16.07-1.33.05-.62,1.61-1,1.77-1.6.44-.47.73-1.32.35-1.29.84-.53.55-1.57-.46-2.51-.08,0,1.08-.7-.1-1.17-.19.2-2.54-1,2.06-.89-.39-.83.38-1.55-1.14-2.09-.36-.81.46-1-.26-1.22-.68-.32.6-1.38-.17-1.5-.1-1.6-.26-3.21.54-3.86,0-.53-1-1.69-.64-2.21-.7.89-3.38-.84-.48-.17-.37-.18,2.22-.56-1.48-.6-.55-1.09-.38,0,1.05-1.6-.48S2.94,2.25,3.44,2.1c.87.31,0,1.13-.41-.43-.44.45-.49.16-.47-.09v0c-.72-.39-.65,0-1.43-.39C1.07-.24.79-.3,0,.56V8.35H111.69Z" fill="url(#gr)"/></svg>