<svg xmlns="http://www.w3.org/2000/svg" viewBox="0 0 111.69 10.36"><defs><linearGradient id="gr"><stop offset="0%" stop-color="#eee"/><stop offset="50%" stop-color="#f5f5f5"/><stop offset="100%" stop-color="#eee"/></linearGradient></defs><path d="M111.64,2.92c-1.67,0-1.41.26-1.72.73-.48.66-1.63.35-1.7.66-1.6.06-2.39.53-4.11,0-2.08.11-2.21,1-3.63-.65-.8-.52-.68-1.39-1.86-1.4-1.43-.9-2.12.5-3.8,0a3.37,3.37,0,0,1-2.2-.47C92,2.3,92,.89,91.29.39c-1-.93-1.44,0-2.46.45C87.63,2,86.29,1.4,85,1.07c-1.13-.55-1.81.78-2.89.33-.61.51-1.28-1.15-1.86.26-.57-.16-1,.68-1.5.82-.43-1.3-.8.47-1.25.24-.77.55-1-.1-1.54.79a1.5,1.5,0,0,1-1.84.77,7,7,0,0,0-.41,1.54.21.21,0,0,0,0-.06c-.38,2-1.68,1.12-3.26,1.17-1.2-.92-2.35-.2-3.54.45A24,24,0,0,1,64,7.4c-.58-1-1,1.95-1.52-.22-.82,1-.92-1.76-1.81-.48-.54.19-1-1.27-1.53-.25a6.18,6.18,0,0,1-1.77,0c-.94-1-1.87,0-2.81,0-1.24-.43-2.44,1.38-3.68-.23C50,6.1,49.13,5.07,48.46,5.6c-.56-1.16-.76-.78-1.46-1-.65-.91-1.47-.38-2.2-.68-.74-.12-1.83-.52-2.52.09-.72-.42-.86,1.09-1.68.37C39.17,4.81,38,2.67,37.12,5c-.17-.13-.38-.74-.63.73C36,5,35.1,7,34.56,5.75c-1.25.21-2.25,1-3.45.72a27.65,27.65,0,0,0-3.63.23c-1.26-1.43-2.54-.45-3.76,0a2,2,0,0,0-2.3.13c.23.63-.76.26-1.13.34a19.54,19.54,0,0,1-4,.14c-1.95,1.51-2.37,1-4,.08-2,.15-3.41.18-3.9.72-.83-.23-2.19.27-3.2.25-1,.56-1.57-.56-1.81-.59a2.58,2.58,0,0,1-1.76-.42C1,7.19.45,7.08,0,7v3.35H111.69V2.92Z" fill="url(#gr)"/></svg>