<svg xmlns="http://www.w3.org/2000/svg" viewBox="0 0 111.69 7.78"><defs><linearGradient id="gr"><stop offset="0%" stop-color="#eee"/><stop offset="50%" stop-color="#f5f5f5"/><stop offset="100%" stop-color="#eee"/></linearGradient></defs><path d="M111.69,7.78v-3c-1.73-.55-2.49-.67-2.39.24a.74.74,0,0,0-1,.56.93.93,0,0,1,0-.14c-.71.46-1.7-.88-2,.06,1-.23-1.61.62-1.81-.16-.65-1.3-1.42-1.52-2.47-.44-.44-.81-2.52-.12-2.39-.88-.68.15-2,0-4.08,0-1.67.45-2.65,0-4,0-.76.05-1.53-1-2.3,0-.76-.38-1.58.6-2.11-.53-.21.23-.16-.51-.4-.67a8,8,0,0,1-3-.21c-1.65-.47-3.3-.12-5,0a2,2,0,0,1-2.45,0c-1.09-.27-2.13-1.1-3.21-.25-1-1-1.78.79-2.6.24-.45.45-1-.84-1.47.48a2.07,2.07,0,0,0-2.52.33C66,4,65.88,4.71,65.1,4s-1-.91-1.53.49c-.27.41-.45.78-.77.47a20.57,20.57,0,0,0-3.14,0c-1.31-1.4-2.63-.2-3.95,0-1-1.9-2-.6-3,0-.5-.48-1.29.47-1.76,0-.55-1.2-.29-1.05-.76-.45-.72-.59-1.41,0-2.3-1.13a2.79,2.79,0,0,0-2.21-.3,6.85,6.85,0,0,1-2.95-.47c-.86-1.08-1.48.4-2.11-.5-.31.49-.55.13-.87-.65-.94-1.64-2-.2-3.23-1.19-1.79-1-3.5,1.05-5.27.26A2.47,2.47,0,0,1,28.8.66c-.85-.65-1.51,1-2.28,1.51-.83-.83-1.57,0-2.49.51s-1.27,1.47-2,1.26c-.83,1.55-2.42.47-3.57.37-1.69-.53-3.18,1.43-4.8-.24-1-.05-1.3,1.2-2.16-.33-.93.12-1.71-.58-2.42-.18-1.21.43-1,0-1.55.23s-1.39,1.1-2,.25c-1.11.7-3.1,1.25-3,1C1.52,5.38,1,4.29.51,3.92c0-.52-.19-.69-.51-.71V7.78Z" fill="url(#gr)"/></svg>