<svg xmlns="http://www.w3.org/2000/svg" viewBox="0 0 111.69 6.27"><defs><linearGradient id="gr"><stop offset="0%" stop-color="#eee"/><stop offset="50%" stop-color="#f5f5f5"/><stop offset="100%" stop-color="#eee"/></linearGradient></defs><path d="M111.69.16a3.61,3.61,0,0,1-2.23-.08c.18.78-.54.9-1.2.69-1.62,1.24-4,.94-3.75,0-1.92.08-1.44.68-2.41-.24-.19-1.2-.76-.11-1.38-.24-.93-.57-2.61.7-3.58,0a13.51,13.51,0,0,1-6,.29A17.1,17.1,0,0,0,87,2c-1.45-.52-3.1.84-4.58,0-1.79.78-3.56-.46-5.36.5-.87,0-1.59-.84-2.45.16-.31.7-.76-.88-1.07.15-.45-.85-.68.78-1.17.78a4.34,4.34,0,0,1-4.8-.35c-1-.46-2.73.49-3.67.12-.82-.07-1.51-1-2.41.57-.62-.24-1.26.9-1.88,0-1.12,1.89-2.07-.78-3.11-.48-.47,1.72-.95-2.08-1.41-.3-.66-.78-1-1-1.73-.66-1.88.09-3.9.95-5.8,0C46,1,44.46,1.1,42.92,2.47c-1.21.12-2.42,1.19-3.64,0a12.27,12.27,0,0,0-3.63,0c-1.15.33-.6-.12-1.27-.69-.46-3.14-1.79-.33-2.35,0-1.21-.24-1.71.13-2.81.71-.67.35-1.32-1.15-2,.24-1.31.21-2.28,1.59-3.91.24-.94-.53-.8,0-2.05.18-.08-.47-.7-.17-1,0-.62-1.18.16.4-.76.67a4.17,4.17,0,0,1-4,.52c-.68-.67-1.39,1.54-1.93-.55-1.79.63-1.94-.76-2.84-.16-2.42-.7-4.6-.58-5.34,0-2.36.79-3.12.79-4.18,0C0,2.93.2,3.29,0,4V6.27H111.69Z" fill="url(#gr)"/></svg>