<svg xmlns="http://www.w3.org/2000/svg" xmlns:xlink="http://www.w3.org/1999/xlink" viewBox="0 0 26.78 4.17"><defs><style>.cls-1{fill:#1c1c1c;}.cls-2{fill:url(#linear-gradient);}</style><linearGradient id="linear-gradient" x1="23.5" y1="55.57" x2="23.5" y2="52.47" gradientTransform="translate(-10.04 -51.8)" gradientUnits="userSpaceOnUse"><stop offset="0" stop-color="#999"/><stop offset="0.53" stop-color="#fafafa"/><stop offset="0.66" stop-color="#f7f7f7"/><stop offset="0.75" stop-color="#eee"/><stop offset="0.83" stop-color="#dfdfdf"/><stop offset="0.9" stop-color="#c9c9c9"/><stop offset="0.96" stop-color="#adadad"/><stop offset="1" stop-color="#999"/></linearGradient></defs><title>staple-1</title><g id="Слой_2" data-name="Слой 2"><g id="Слой_1-2" data-name="Слой 1"><path class="cls-1" d="M4.17,2.09A2.09,2.09,0,1,1,2.09,0,2.08,2.08,0,0,1,4.17,2.09Z"/><path class="cls-1" d="M26.78,2.09A2.09,2.09,0,1,1,24.69,0,2.09,2.09,0,0,1,26.78,2.09Z"/><path class="cls-2" d="M26.24,2.15a1.47,1.47,0,0,1-1.46,1.48H2.14A1.47,1.47,0,0,1,.67,2.15h0A1.48,1.48,0,0,1,2.14.67H24.78a1.48,1.48,0,0,1,1.46,1.48Z"/></g></g></svg>