<?xml version="1.0" encoding="utf-8"?>
<!-- Generator: Adobe Illustrator 24.0.1, SVG Export Plug-In . SVG Version: 6.00 Build 0)  -->
<svg version="1.1" id="Слой_1" xmlns="http://www.w3.org/2000/svg" xmlns:xlink="http://www.w3.org/1999/xlink" x="0px" y="0px"
	 viewBox="0 0 876 24.8" style="enable-background:new 0 0 876 24.8;" xml:space="preserve">
<style type="text/css">
	.st0{fill:url(#SVGID_1_);}
</style>
<title>01</title>
<g id="Слой_2_1_">
	<g id="Слой_1-2">
		
			<radialGradient id="SVGID_1_" cx="438" cy="-135.58" r="330.125" gradientTransform="matrix(-1 0 0 -1 876 26)" gradientUnits="userSpaceOnUse">
			<stop  offset="0" style="stop-color:#FAFAFA"/>
			<stop  offset="0.36" style="stop-color:#F7F7F7"/>
			<stop  offset="0.61" style="stop-color:#EEEEEE"/>
			<stop  offset="0.83" style="stop-color:#DFDFDF"/>
			<stop  offset="1" style="stop-color:#CCCCCC"/>
		</radialGradient>
		<path class="st0" d="M0,24.8h876V2.2c-1,0.3-2.1,0.5-3.2,0.6c-0.4-1,1-0.5,0.8-1.3c-0.8,0.3-1.1,1-1.7,1.4
			c-0.5-0.7,0.7-1.3-0.1-1.3c-6.7-0.5-11.5,0.8-16.9,1c0.6-0.2,2.1,0.2,2.2-0.5c-3.6,0.8-7.2,1.3-10.8,1.7c-2.2,2.6-6.6,3.7-10.7,6
			c-1.7-0.1-2.7,0.9-3.5,0c0.3,1.3-1.1-0.2-0.2,1c-1.3-0.7-2.1,0.9-1.3-0.8c-1.5-0.1-1,1.3-2.1,1.5c0-0.8,0.5-1-0.4-1.2
			c0,0.4,0.1,0.9-0.2,1c-0.1-0.5,0-1.2-0.4-1.2c-0.5,0.4-1,0.8-1.4,1.3c-0.1-0.4,0-0.9-0.4-0.9c0,0.4,0.1,0.9-0.2,1
			c-0.3-1.5-0.8,0.6-1.5,0.5c-0.2-0.5,0.4-0.8-0.1-0.9c-0.5-0.4-1,1.6-1.5,1.1c0.8-0.8-2.8-1.2-2.8,0.6c-0.3-1.3-1-1-0.2-2.2
			c-0.5,0.6-0.9-0.3-1.5,0.5c-0.6-1,1-0.3,0.8-1c-0.5,0-0.6-0.5-1-0.5c-0.5,0.7-0.2,1.4-0.5,1.6c-1.2-0.6,0.8-1.5-0.2-1.9
			c-0.9,0.2,0.1,1.8-1.1,1.7c0.4-1.8-1.2-0.8-1.6-0.2c-0.2-0.4-0.6-0.7-1-0.9c0,0.5,0.2,1.1-0.2,1.3c-0.1-0.5-0.6-0.7-1.3-0.5
			c0,0.4,0.1,0.9-0.2,1c-0.3-0.3-1.5,0.1-2-0.8c-0.4,0.5-1.5,3.2-1.3,2.3c0.5-1.1,0.5-2.4,0-3.5c-1.6,0.9-2.4-0.2-3.8,0.1
			c-1.4,2-3.6,3.1-6,3.1c-0.5-0.9-1.1-1.7-1.8-2.3c-0.1,0.9-1,2.8-1.7,2.4c1.3-1.1-1.7-2.4,0.7-2.6c-0.2-0.3-0.4-0.6-0.7-0.9
			c-0.5,0.6-1,1.2-1.6,1.8c-1.3-1.6-4.8,0.5-5.4-0.4c0,0.4,0.1,0.9-0.2,1c-1.9-0.9-2.7,0.4-3.4,0.6c-0.1-0.5,0-1.2-0.4-1.2
			c-0.1,0.8-4.1,1.8-2.5,0.6c-1.1,0.3-2,1-2.7,1.8c-0.1-0.5,0-1.2-0.4-1.2c-1.2,3-6.8,2.3-10.3,3.8c-0.6-1.9-2.7-0.7-4-2.1
			c-0.1-0.9,0.9,0.7,0.6-0.7c-1.5,0.8-1.9-0.1-3.2-0.3c-0.4,0.5-0.9,1-1.4,1.4c0-0.5-0.4-0.7-1-0.5c0.7,1-0.3,0-0.5,1
			c-0.4-1-0.5,0-0.7-0.9c-1.5,0.1-0.6,1.2-1.1,1.7c-0.2-0.9-1.3-0.8-1.7-1.4c-0.2,1.2-1.7,2.7-2.3,2.7c0.3-0.1,1.3-1,0.5-1
			c-1-0.2-0.6,0.8-1.1,1c-0.2-0.5,0.4-0.8-0.1-0.9c-0.1,0.6-0.3-0.1-0.6-0.3c0,0.5,0.2,1.1-0.2,1.3c-0.4-1-2.8,1.3-2.2,0.2
			c0.2-0.4,1.2-0.2,1.2-0.7c-1.5,0.7-1-1-2-0.8c-0.1,0.6,0.5,0.7,0.1,0.9c-0.4-0.9-0.5-0.4-0.9,0.1c-1.1-2.6-2.2-1-3.7-2.8
			c-0.2,0.8,1.5,1.5,0.1,1.6c-0.2-0.7-0.5-1.3-1.1-1.8c-1.9,0.5-2.5,0.6-4.1-0.2c0,0.4-0.6,0.3-0.6,0.7c0.1,0.6,0.5-0.2,0.6,0.3
			c-0.4,0.4-1.6,0.2-1.9-0.4c0.3-0.3,1.1-0.2,0.8-1c-2.5,0.6-4.3-2.7-8.3-1.1c0,0.5,0.4,2.6-0.2,1.6c-0.2-0.6-0.1-1.3,0.1-1.9
			c-1.5,0.4-1.9-0.4-2-0.8c-0.4,0.1-0.7,0.4-0.9,0.7c0.4,0,0.8,0.4,0.4,0.6c-0.1-0.5-1-0.9-0.6,0.1c-1.6-2.1-6.1,1-5.1-0.8
			c-2.2,1-4.8,0-7.1,1c-5.8-3.3-13.2,4-17.5,1.1c0.3,0,0.8-0.2,0.3-0.3c-2.8,0.9-3.6-1.2-5.4-0.4c0.7-0.3-0.4-0.5,0.2-1
			c-0.8,0.8-1.6-0.4-2-1.1c0.1,0.8-0.4,1-0.8,1.3c-3.6-1.4-7.3-0.5-10.7-0.2c0.8-0.1,1-0.7,1.5-1.1c-1.9,0.1-4.3-0.5-5.2,1.4
			c-0.5-0.2-0.2-1.2-0.8-1.2c0.2,0.5,0.1,1.1-0.2,1.6c3.1-0.5-0.1,1-0.9,0.1c0.7,0,1-0.3,0.8-1c-2.2-0.3-3.5,1-5.1-0.8
			c-2.9,1.8-5.8,0.8-8.9,2.4c-0.1-0.4,0-0.9-0.4-0.9c-0.4,1.2-2.6-0.6-3,1.5c-1-2.2-2.5-1.4-3.1-3.2c-1.6,0.1-3.3-0.4-4.5-1.4
			c-2.5,1-5.8,1.9-8.1,0.8c-2.8,1.6-5.7,1-8,2c-0.2-1.8-2.4,0.2-2.6-1c0.3-0.1,0.5-0.4,0.6-0.7c-0.6,0.2-0.9,1-1.5,0.5
			c-0.2-0.9,0.6-1,0.4-1.9c-2.6,0.1-5.3-0.9-8-0.2c-0.1,0.1-0.3,0.1-0.5,0.1l0.5-0.1c0.4-0.3,0.5-1,0.1-0.9c-3,1.4-4.1-0.1-8.1,0.8
			c-0.1-0.4,0-0.9-0.4-0.9c-3.1,0.2-5.8,1.5-7.6-0.8l0.1,0.9C604,7,603.6,7.4,603,7.5c-0.7-1.6-4,0.4-6.9,0.7
			c-0.5-0.7,0.7-1.3-0.1-1.3c-0.7,0.3-1.5,0.6-2.2,0.8c-0.5-1-1.8-1.1-2.4-2c-0.9-0.1-0.6,0.7-1.2,0.7c0.2-1.3-2.5-0.5-2.8,0.6
			c-0.1-0.4,0-0.9,0.2-1.3c-3.3,0.4-5.3,0.4-8.6,1.8c0.4,0,0.8,0,0.7,0.6c-1.4-0.7-6.5,0-6.2,0.6c-1.5-0.8-5.2,0.8-5.4-0.7
			c-3.6,1.2-10.3,1.4-12-0.7c-1.7,1.6-5.5,0.4-6.6,2.8c-3-1.6-7-2.2-10-2.8c0,0.3,0.2,0.7,0.4,0.9c-2.3-2.6-7.5-3.1-11.1-1.1
			c0.3-0.9,0.8-1.2-0.2-1.9C522,6.8,518.2,4.6,513,3.8c-2.5,1.7-9.9-0.2-11.8,1.8c-1.3-2.2-5.7-1.7-8-1.7c0.3,0,0.3-0.6-0.1-0.6
			c-2.5,1.3-4.8-0.4-6.6-0.3c-4.1,1.4-9,1.8-12.9-0.3c-1.5,2-5.2,0.3-5.7-0.7c-2,0.7-2.2-0.1-3.6,1.3c-0.2-1.3-1.8-1.3-1.8-2
			c-1.7,1.4-2-0.5-2.4,0.9c-0.6-0.5,0.3-1-0.7-1.2c-0.6,0.8-2.1,2.3-2.6,2.1c2.8-1.6-2-2.2-2.3-0.7c-0.5-2-2.9,0-3.4,0.6
			c-0.8-1.8-5,0.6-6.1-1.6c-1.4,0.8-3.3-0.1-4.4,0.1c0.7,0.7,0,0.4-0.2,1c-0.4,0.1-0.9,0-1.3-0.2c-1.2,3.5-5.4,0.9-8,1.4
			c-2.4,0.4-3.9,2.5-5.6,2.8c0.3,0,0.6,0.2,0.6,0.5c-2.4,0-4.2-1.3-7.3-0.9c0.3-3.2-6.2-0.9-8.9-0.7c-0.2-0.5,0.4-0.8-0.1-0.9
			c-0.6,0.2-0.5,0.9-1.2,1.1c0.4-1.1-0.2-0.9-0.8-1.5c-0.2,0.5-2.6,1.6-2.1,0.8c0.5,0,1-0.3,1.2-0.7c-3.3-0.2-3.6,1.9-6.5,1.3
			c0.2-0.1,0.6-0.1,0.6-0.4c-2.6-1.5-4.5-2.2-6.7-1.2c-1.1,0.4-4.8,0.7-6.1,1.8c0.4-1.4-1.6-0.8-1.9-0.4C385.6,4,387.6,5,387,3.8
			c-0.6,0.5-1.5,0.6-2.2,0.2c0.8,0.7-2.1,2-2.3,1.8c0.3-0.2,0.6-0.4,0.9-0.7c-1.1,0.4-1.1-0.6-1.6-0.8c-1.4,0.7-3.1,2.6-4.5,2.3
			c0.8-0.4-0.3-1.3-1-1.2c-2.3,1.7-4.2-0.6-6.8,1c0.6-1.4-0.5-0.5-1-1.2c0.3-0.1,0.5-0.4,0.6-0.7c0.8,0.1,1.5-0.1,2.1-0.5
			c-3.5-0.6-8,2.8-12.3,2.4c0.1,0.3,0.5,0.4,0.1,0.6c-0.1-0.5-1.1,0.4-1.5,0.5C353,5.2,343.4,7,339.4,7.8c-0.7-0.2-0.7-1.4-2.2-0.4
			c-0.6-0.6-0.9-0.7-1.1-1.2c-2.7,0.2-5,0.8-7.3-0.2c-1.3,0.3-1.9,1.6-3,1.5c0.2-0.3,1.2-1.3,0.5-1.3c-1.4,0.5-2.2-0.1-2.7,1.2
			c-0.1-0.4,0-0.9-0.4-0.9c-2.2,2.3-5.7-1.4-7.7,1.4c-0.9-0.1,0.4-0.6,0.2-1c-4,2-6.5,1.5-10.4,2.6c1.1-0.6-1.5-1.5-2-1.1
			c-0.1,0.1-0.2,0.2-0.3,0.3c0.5,0.4-0.2,0.4,0,0c-0.1-0.1-0.2-0.2-0.4-0.3c0,0-0.7,0.2-0.9,0.1c0.1,0-1.4-1.6-1.1-1.8
			c-1.2-0.1-1.9-0.7-2.9-0.9c-2,1.5-4.6,2.3-6,3.1c1.3-1.2,0.2-0.2-0.6,0.1c-0.2,0.1-0.9-0.3-1.3-0.2c-3.5,1-6.7,1.9-9.3,1.8
			c-0.8-1.1-0.4-1.6-1.8-2c-1.8,0.2-4.5,2.7-5.6,0.9c0.8,0,1,0.5,1.2-0.4c-1.2,0.6-0.7-1-1.9-0.4c-0.6,0.1,0.2,0.6-0.3,0.7
			c-4.9,1-6.6-1.2-9.5-0.3c0.4-0.1,0.7-0.2,0.6-0.7c-0.8-0.5-2.5,0.8-3.5,0c1.7,0,0.3-0.5-0.1-0.9c0.2,1.3-0.4,0-1.2,0.4
			c-0.5,0.2,0.2,1.5-0.5,1.6c-0.1-1-1.4-1.2-2.4-2c-2.4,1-4.9,1.8-7.5,2.3c-0.1,0-0.3,0.1-0.4,0.1l0.4-0.1c1.2-0.3-0.9-0.8,0.4-1.3
			c-1.3,0.5-3.1-0.6-3.7,1.3c-0.4-1.6-2.2,0.2-3.1,0c0.4-0.6-1.3,0.5-1-0.5c-1,1.1-2.4-0.1-3.5,0c-3.7,0.9-8.2,1.9-10.6,0.7
			c-1.4-0.6-2,0.5-1.8,0.5c-1.9-0.2-3.9-2.5-6.7-0.6c-0.8-0.4-0.3-0.6-0.7-0.9c-2.1-0.4-4.9,1-7.4,1.4c-1.1,0.1-3.1-0.8-3.1,0.3
			c-0.5-1-1.4-1.1-0.2-1.9c-0.8-0.4-2.7,0.5-2.5-0.4c-2.8,1.8-4.5,0.4-6.8,1.6c0.3-2.1-3.1-0.4-4.8,0.1c0.5-0.3,0.8-0.9,0.4-0.9
			c-1.9,0.2-3.8,3.2-6.7,2.5c0.8-0.5,0.8-0.2,1.9-0.2c-1.4-0.8-0.1-1.7-1.1-2.1c-0.7,1.8-2.1,0.5-3.1,0.6c0.2-0.1,0.6-0.1,0.6-0.4
			c-1.3,0.4-1.3-0.7-2.3-0.7c-0.4,0.3-0.9,2.1-1.4,1.4c0.8-0.1,0-1-0.4-0.9c-0.8,0.7-1.8-0.5-2.8,0.3c0-0.5-0.3-1-0.8-1.2
			c0,0.5-1.2,1.5-1.5,0.8c1.3-0.6-1.1-0.4-1.6-0.5c0.9,0.7-0.5,0.5-0.5,1.3c-1,0.1-2,0-2.9-0.4c0.4,0,0.8-0.3,0.9-0.7
			c-0.7,0-1.2,1.6-1.8,0.8c-0.1-0.5,0.8-1,1.4-1.7c-1.5-1.3-4.6,0.7-6.4-1.3c-1.1,0.2-1.4,0.9-2.7,0.9c-0.2-0.5-0.3,0.7-0.8,0.5
			c-0.6,1.5-4.4-3.4-6.3-1.7c-0.3-0.5-0.2,0.3-1.1,0.5c0.4,0.4-1.6-0.7-2.3,0.4c-0.9,0.2,0.7,0.8-0.4,0.8c-0.4,0.9-1.6-1.3-2.4-1.1
			c0.3-0.1,0.4,1.1,0.5,1.3h0.1c0,0,0,0,0,0c-1.7-0.1-5.2-1.8-3.9-3.5c-2-1-6.4-2.4-7-0.3c-1.1-0.5,0.7-1.1-0.1-1.2
			c-1.1,0-0.6,0.7-1.4,1.4c-0.1-1.2-1.7-0.7-2.9-0.7c-0.5-1,1-0.3,0.5-1.3c-0.4,0.5-1.4,1.1-2.2,0.5c-0.1-0.6,0.4-0.7,0.5-1
			c-2-0.4-4-0.1-5.8,0.9c-0.1,0.1-0.2,0.3-0.4,0.4c0.1-0.2,0.2-0.3,0.4-0.4c0.7-0.9-0.8-1.6-1.4-0.5c-0.4-2.3-2.7,0.6-3.5-0.3
			c1.1-1.2-2.5,0.1-3.2-0.3c-0.2-0.4,0.2-1.6-0.5-1.5c-1.6,0.4-1.7,1.1-4.3,0.7c0.4-0.1,0.9,0,0.9-0.4c-2.3,0.1-0.5,0.9-2.8,0.6
			c-0.5,0.8,0.6,1.2-0.5,1.3c-0.5-0.1,0-0.4-0.1-0.9c-1.6,1-3.3-0.4-4.3,1c-1.3-1.1-3.2,0.5-4.7,0.1c-0.3-1.7-4.6,0.8-6,0.3
			C96.5,2.4,97,2.5,96.5,2c-1.2,1.1-1.7,0.1-2.8,0.6c0.2-1.1-0.2-0.9,0.5-1.6c-1.1,0.8-1.9-0.1-2.9-0.4c0.9,1.3-1.6-0.1-1.8,1.1
			c-0.2-0.6,0.8-1.4-0.4-1.2c-0.8-0.1,0.8,1.4-0.2,1.6c-0.5-0.2-0.2-1.2-0.7-1.2c-0.2,1.8-1.3-0.2-1.9-0.1s-0.1,1-0.8,1
			c0.2-1.5-1.2-0.8-1.3-0.2c-0.3-0.7,1-1.5,0.2-1.6c-1.5,0.6-3.2,1.9-4.8,0.9c-0.9,0.1-0.8-0.9-1.4-0.6L78,0.1C78.2,0.3,78.6,1,78,1
			c-1.2-0.1-1.8-0.5-1.6,0.7c-0.4-2.2-2.3,0.5-3.6-0.4c-0.1,0.1-0.2,0.1-0.1,0l0.1,0c0.2-0.2,0.7-1,0-0.8c-0.7-1-1.3,1.9-2.3,1
			c0.3,1.8-1-2.5-1.1-0.6c-1.3-1.4-2.7-0.6-4,0.7c-0.1-0.5,0-1.2-0.4-1.2c-1.1,1.1-0.1,1.2-1.7,2.4c-0.5-0.9,0.9-1.7,0.1-1.9
			c-1.3,0-3,2.3-3,1.5c0.3-0.2,1.5-1.2,0.8-1.3c-1.8,0-1.5,1.5-3,0.9c0.4-0.3-0.9-0.4-0.7-0.9c-1,0.8-4.4-0.4-6.5,1.6
			c-0.6-0.7-1.3-0.2-2.3-1c-0.2,0.5,0.5,1.6-0.2,1.6c0-0.4-0.3-0.8-0.7-0.9C46,3.6,44,5.3,41.1,4.3C41.6,4,42.4,4,42.6,3.5
			c-1.1,0.5-0.9-0.7-1.9-0.4c0.5,0.6-3.9,1.7-3.7,0.7c-1,1.6-4.4-0.2-4.4-0.2s-0.4,0.7-0.9,0.7c-2.4,0-7.3-1.6-7.5,0.4
			c-1.1-0.6-4.3,2.5-4.3,1c0.1,0.5,0.5,0,0.6-0.4c-1.8-0.3-5.8,0.9-7.6,2.3c-0.2-0.6,0.4-0.7,0.5-1c-0.8-0.3-1,1.5-1.5,0.5
			c0.7,0,1-0.3,0.8-1c-0.6,0.4-1.6-0.2-2.1,0.8c-0.5-1.6-1.5,0-1.1-1.5c-1-0.2-1.2,0.4-1.5,0.8c0.2-0.8-0.7-0.5-1-0.8
			c-0.2,0.3-0.5,1.8-0.8,1c0.3-0.1,0.3-0.6,0.2-1C3.7,6,2.4,7.8,0,8.2L0,24.8z"/>
	</g>
</g>
</svg>
