<svg xmlns="http://www.w3.org/2000/svg" viewBox="0 0 111.69 6.74"><defs><linearGradient id="a"><stop offset="0%" stop-color="#eee"/><stop offset="50%" stop-color="#f5f5f5"/><stop offset="100%" stop-color="#eee"/></linearGradient></defs><path d="M111.69 1.66c-1.22.48-1.74-.49-2.33.1-.87-.94-1.77.24-2.72 0-.39.71-1 .37-1.65.06-.83-1.87-1.24-.66-1.06 1.25-.42 1.45-1.9 2.19-2.7.33-1.09.86-1.88-2.35-2.79-1.13-1.44.8-2.24-2.27-3.51-.54C94 4.08 92 2.93 91.39 2.81c-.4-.24-.45.53-.77.93-.91 1.3-2.8.77-4 1-.65-.24-1.11.18-1.71-.12a15.58 15.58 0 00-4.44-.4c-1 .5-1.53-.1-2.37-.81-1-1.8-2.59.62-3.7-.09-.26.08-.69.72-.94-.14-.54-1.12-.12-1-.4-.8-.58-.76-1.63.8-2.54-.67-.73-1.11-1.82.6-2.52-.2-.43.44-.7-.51-1.13-.63A3.28 3.28 0 0064.19.5C63 .07 62 .47 60.78 0c-.21 1.88.15 4-.28 2.21-.55.54-1.36 1.93-2.42 2.11-1.47 0-3 1.38-4.61.5s-3.16 1.41-4.67-.07a18 18 0 01-4.52 0c-1.52 0-2.9-1.79-4.43-.86-.71.44-1.62-1.44-2.3 0-.35-1.24-.53.32-.82-.57-.49-1.27-.67-1-1.24-.29-1.33.28-2.66-.87-4 0-.78-.62-1.43.86-2.17-.45-1-1.28-2.05-.31-3.1-.18-.71-.81-1.93.37-2.59 0-.33.39-.38 1.9-.65.47-.88 1.12-2.06 2.7-3 1.05-1.05-.08-1.41 2.78-3.11.76-1.32-1-2.64-.77-4 .39a1.76 1.76 0 01-1.81 0 11.47 11.47 0 00-1.5-.53 17.74 17.74 0 00-2.81-.19C4.57 4.09 4.1 6 2.79 3.83 2 4.54.81 3.28 0 3.18v3.56h111.69z" fill="url(#a)"/></svg>