<svg xmlns="http://www.w3.org/2000/svg" viewBox="0 0 111.69 9.98"><defs><linearGradient id="a"><stop offset="0%" stop-color="#eee"/><stop offset="50%" stop-color="#f5f5f5"/><stop offset="100%" stop-color="#eee"/></linearGradient></defs><path d="M0 10h111.69V2.9a9.52 9.52 0 00-1 .34c-.89 0-.5 1.33-1.72.8-.65-.5-1.34-.18-3.15.72-1.33-.76-2.06 1.39-2.19 1.37.06.31-1-.75-2.7.59-.12.93-1.2 2.23-2.45 1.12-2.33 0-2.74-.75-3.46 0-.72-1 0-.29-.89-.41-.18-.56-1.77-1.07-2.27-.3-.56-1.64-.21-.62-1-.65-.43 0-.52 1-1.27-.33a3.14 3.14 0 01-1.63-.43c.06 0 0 .2 0-1.22-.65.06-1.56-1.74-2-2 .09 1.23-.65-.63-.81-.75-.32-1.16-.48.6-.8.25-1.45.77-1.54-1-2.45-2-.35.6-1.18-.21-1.52.27a1.34 1.34 0 01-1.78.64c-.75.86-1.54-.69-2.28 0-.44-.2-.88 1-1.36.42-.35-.87-.24-1-.48-.24-.48-1.36-.62-.21-1.35-.2-.5.78-1.33-.46-1.82 0-.39-.38-.72-.86-1 .59-.49-.17-.88.27-1.62 1-.65.12-1.42-.65-2.1 0-.68-.71-.73.81-1.27.23s-.92.69-1.29.42c-.42-.88-.37 1.07-.92.73-.17-.89-.86.3-1 0-.44.37-.89.87-1.34 0-.62.73-.61-.15-1.1-.44-.89-.4-2.39.75-3.27 1-.77.41-1.55.85-2.3.29-1 .53-2 0-3-.13s-1.92-1.3-2.84 0c-1 .55-1.7-.6-2.43-.68-.73-.25-1.45-.93-2.41-.68-.93.47-1.76-.12-2.69.24-1.17.91-2.34 1.11-3.5 0-.9.72-1.81-.22-2.69 0-.87 1.62-1.71.73-2.47.68-.74 1.43-1 .72-2 .44a3.18 3.18 0 01-2.39.24c-.78.09-1.83-.64-2.62 0-.8-1.37-.87-1-1.57-.7s-1.79.08-2.53 0c-1.24 1.61-2.4-.73-3.48-.23s-2.71-2-3.45.23c-1.2 2.34-1.39-2.14-2.61.23-1.07-.19-.47.25-1-.13-.75-1.6-1.71-.82-1.82-.63-.71-.86-1-.24-1.93-.46 1 1.79-3.56-1.69-2.69 0-1.08-.26-1.83 1.21-2.88-.22a2.2 2.2 0 01-1.1-.4z" fill="url(#a)"/></svg>