<svg xmlns="http://www.w3.org/2000/svg" viewBox="0 0 11.76 43.93"><defs><style>.cls-1{fill:#2b2b2b;}.cls-2{fill:#3e3e3e;}.cls-3{fill:#525252;}.cls-4{fill:#656565;}.cls-5{fill:#787878;}.cls-6{fill:#8b8b8b;}.cls-7{fill:#9f9f9f;}.cls-8{fill:#b2b2b2;}.cls-9{fill:#c5c5c5;}.cls-10{fill:#d8d8d8;}.cls-11{fill:#ececec;}.cls-12{fill:#fff;}</style></defs><g><path class="cls-1" d="M9.29,27.53V12.2c.14-2.41-.36-5.31-2.73-5.61C4.05,6,2.62,8.26,2.73,10.77c0,4.72,0,10.11,0,15.13v7.67c.16,2.52-.44,5.27.72,7.24A4,4,0,0,0,9.21,42c1.72-1.54,1.38-4.3,1.4-6.82V19.87c-.08-5,.16-10.37-.17-15.18A4.69,4.69,0,0,0,5.28,1.18,4.77,4.77,0,0,0,1.12,5.86H0A5.92,5.92,0,0,1,5.14.06a5.82,5.82,0,0,1,6.4,4.36c.39,5.35.11,10.29.2,15.45V35.2c-.09,2.39.5,5.49-1.8,7.67a5.08,5.08,0,0,1-7.48-1.49c-1.42-2.63-.67-5.32-.87-7.81V25.9c0-5,0-10.37,0-15.17A6.84,6.84,0,0,1,2.76,6.78a4.07,4.07,0,0,1,4-1.3A4,4,0,0,1,9.93,8.22a10.87,10.87,0,0,1,.48,4V27.53Z"/><path class="cls-2" d="M9.33,27.53V12.2C9.47,9.79,9,6.86,6.57,6.54a3,3,0,0,0-3,.91,5.74,5.74,0,0,0-.91,3.32c0,4.72,0,10.11,0,15.13v7.67c.16,2.52-.45,5.27.72,7.26a4,4,0,0,0,5.84,1.22c1.75-1.57,1.4-4.34,1.43-6.85V19.87c-.07-5.05.16-10.36-.16-15.19A4.75,4.75,0,0,0,5.28,1.13a4.83,4.83,0,0,0-4.2,4.73h-1A5.86,5.86,0,0,1,5.15.12a5.77,5.77,0,0,1,6.34,4.31c.39,5.33.11,10.28.19,15.44V35.2c-.08,2.39.49,5.48-1.77,7.63a5,5,0,0,1-7.4-1.48c-1.41-2.6-.67-5.29-.86-7.78V25.9c0-5,0-10.37,0-15.17A6.7,6.7,0,0,1,2.8,6.81a4,4,0,0,1,4-1.28A4,4,0,0,1,9.88,8.24a10.93,10.93,0,0,1,.48,4V27.53Z"/><path class="cls-3" d="M9.38,27.53V12.2C9.52,9.79,9,6.82,6.58,6.5a3,3,0,0,0-3,.93,5.74,5.74,0,0,0-.92,3.34c0,4.72,0,10.11,0,15.13v7.67c.16,2.52-.45,5.26.72,7.28a4.05,4.05,0,0,0,5.91,1.24c1.78-1.6,1.41-4.38,1.44-6.89V19.87c-.07-5.05.17-10.35-.16-15.2A4.78,4.78,0,0,0,5.27,1.09,4.86,4.86,0,0,0,1,5.86H.11A5.79,5.79,0,0,1,5.16.17a5.71,5.71,0,0,1,6.28,4.28c.38,5.3.1,10.27.19,15.42V35.2c-.08,2.4.48,5.47-1.76,7.58a5,5,0,0,1-7.32-1.45c-1.39-2.57-.66-5.27-.85-7.76V25.9c0-5,0-10.38,0-15.17A6.7,6.7,0,0,1,2.84,6.85a4,4,0,0,1,3.9-1.27A3.92,3.92,0,0,1,9.83,8.26a10.79,10.79,0,0,1,.47,3.94V27.53Z"/><path class="cls-4" d="M9.42,27.53V12.2c.14-2.4-.35-5.41-2.83-5.74a3.09,3.09,0,0,0-3.06.94,5.89,5.89,0,0,0-.93,3.37c0,4.72,0,10.11,0,15.13v7.67c.17,2.52-.45,5.26.73,7.31a4.11,4.11,0,0,0,6,1.24c1.8-1.62,1.42-4.42,1.46-6.92V19.87c-.08-5.06.16-10.34-.17-15.21A4.81,4.81,0,0,0,5.27,1.05,4.91,4.91,0,0,0,1,5.86H.16a5.75,5.75,0,0,1,5-5.64,5.68,5.68,0,0,1,6.23,4.24c.38,5.27.1,10.26.19,15.41V35.2c-.08,2.41.47,5.46-1.74,7.55A4.92,4.92,0,0,1,2.6,41.3c-1.38-2.54-.66-5.24-.85-7.73V25.9c0-5,0-10.38,0-15.16A6.66,6.66,0,0,1,2.88,6.88,3.9,3.9,0,0,1,6.73,5.64a3.86,3.86,0,0,1,3,2.64,10.63,10.63,0,0,1,.47,3.92V27.53Z"/><path class="cls-5" d="M9.46,27.53V12.2c.14-2.39-.34-5.44-2.87-5.79a3.11,3.11,0,0,0-3.09,1,5.93,5.93,0,0,0-.94,3.4c0,4.72,0,10.11,0,15.13v7.67c.16,2.51-.46,5.26.74,7.33a4.13,4.13,0,0,0,6,1.25c1.82-1.64,1.43-4.45,1.47-6.95V19.87c-.07-5.06.17-10.33-.17-15.22A4.87,4.87,0,0,0,5.26,1,5,5,0,0,0,1,5.86H.22a5.69,5.69,0,0,1,5-5.59,5.62,5.62,0,0,1,6.16,4.2c.38,5.25.11,10.26.19,15.4V35.2c-.07,2.41.47,5.45-1.72,7.5a4.87,4.87,0,0,1-7.16-1.43c-1.37-2.51-.64-5.21-.83-7.7V25.9c0-5,0-10.38,0-15.16a6.46,6.46,0,0,1,1.1-3.83A3.85,3.85,0,0,1,6.72,5.69a3.81,3.81,0,0,1,3,2.61,10.71,10.71,0,0,1,.47,3.9V27.53Z"/><path class="cls-6" d="M9.51,27.53V12.2c.14-2.39-.35-5.48-2.91-5.83a3.18,3.18,0,0,0-3.14,1,6,6,0,0,0-.94,3.42c0,4.73,0,10.12,0,15.14v7.67c.16,2.51-.47,5.25.74,7.35a4.19,4.19,0,0,0,6.11,1.27c1.84-1.67,1.44-4.5,1.48-7V19.87c-.07-5.06.17-10.32-.17-15.23A4.9,4.9,0,0,0,5.26,1,5,5,0,0,0,.91,5.86H.27A5.63,5.63,0,0,1,5.18.33a5.55,5.55,0,0,1,6.1,4.15c.38,5.23.11,10.26.19,15.39V35.2c-.07,2.42.46,5.43-1.7,7.46a4.81,4.81,0,0,1-7.08-1.42c-1.36-2.47-.64-5.18-.83-7.67V25.9c0-5,0-10.38,0-15.16A6.53,6.53,0,0,1,3,7,3.79,3.79,0,0,1,6.71,5.74a3.75,3.75,0,0,1,3,2.58,10.57,10.57,0,0,1,.46,3.88V27.53Z"/><path class="cls-7" d="M9.55,27.53V12.2c.14-2.38-.34-5.51-2.94-5.87a3.19,3.19,0,0,0-3.18,1,6,6,0,0,0-1,3.44c0,4.74,0,10.12,0,15.14v7.67c.17,2.51-.47,5.25.75,7.37a4.23,4.23,0,0,0,6.18,1.28c1.86-1.7,1.46-4.53,1.5-7V19.87c-.08-5.07.17-10.31-.17-15.24A5,5,0,0,0,5.25.92,5,5,0,0,0,.86,5.86H.32A5.59,5.59,0,0,1,5.18.38,5.51,5.51,0,0,1,11.23,4.5c.37,5.19.1,10.24.19,15.37V35.2c-.07,2.43.44,5.43-1.69,7.42a4.75,4.75,0,0,1-7-1.4c-1.35-2.45-.64-5.15-.82-7.65V25.9c0-5,0-10.38,0-15.16A6.46,6.46,0,0,1,3,7,3.74,3.74,0,0,1,6.7,5.8c3.08.47,3.55,4.08,3.39,6.4V27.53Z"/><path class="cls-8" d="M9.6,27.53V12.2c.15-2.38-.33-5.55-3-5.92a3.25,3.25,0,0,0-3.22,1,6,6,0,0,0-1,3.47c0,4.74,0,10.12,0,15.14v7.67c.17,2.51-.47,5.24.75,7.4a4.28,4.28,0,0,0,6.25,1.28c1.88-1.72,1.47-4.57,1.51-7V19.87c-.08-5.07.17-10.3-.17-15.25A5,5,0,0,0,5.25.87a5.09,5.09,0,0,0-4.43,5H.38A5.53,5.53,0,0,1,5.19.43a5.46,5.46,0,0,1,6,4.08c.37,5.17.1,10.24.18,15.36V35.2c-.06,2.43.44,5.42-1.66,7.38a4.71,4.71,0,0,1-6.92-1.39c-1.33-2.41-.63-5.12-.81-7.62V25.9c0-5,0-10.39,0-15.16A6.42,6.42,0,0,1,3.05,7,3.7,3.7,0,0,1,6.69,5.85c3,.46,3.5,4,3.35,6.35V27.53Z"/><path class="cls-9" d="M9.64,27.53V12.2c.14-2.37-.34-5.58-3-6a3.29,3.29,0,0,0-3.26,1,6.16,6.16,0,0,0-1,3.5c0,4.74,0,10.12,0,15.14v7.67c.17,2.51-.48,5.24.76,7.42a4.31,4.31,0,0,0,6.31,1.29c1.9-1.74,1.48-4.6,1.52-7.08V19.87c-.07-5.08.18-10.29-.17-15.26A5.05,5.05,0,0,0,5.24.83a5.13,5.13,0,0,0-4.47,5H.43A5.47,5.47,0,0,1,5.2.49a5.39,5.39,0,0,1,5.93,4c.36,5.15.1,10.23.18,15.35V35.2c-.06,2.44.43,5.41-1.65,7.34a4.64,4.64,0,0,1-6.83-1.38C1.51,38.78,2.2,36.07,2,33.57V25.9c0-5,0-10.39,0-15.15a6.4,6.4,0,0,1,1-3.7A3.64,3.64,0,0,1,6.69,5.9c3,.45,3.45,4,3.29,6.3V27.53Z"/><path class="cls-10" d="M9.68,27.53V12.2c.15-2.37-.33-5.61-3-6a3.32,3.32,0,0,0-3.3,1,6.12,6.12,0,0,0-1,3.53c0,4.74,0,10.11,0,15.14v7.67c.17,2.51-.48,5.24.77,7.44a4.36,4.36,0,0,0,6.37,1.31C11.39,40.55,11,37.67,11,35.2V19.87c-.08-5.08.17-10.28-.18-15.27A5.08,5.08,0,0,0,5.23.79,5.16,5.16,0,0,0,.73,5.86H.48A5.43,5.43,0,0,1,5.2.54a5.33,5.33,0,0,1,5.87,4c.37,5.11.11,10.22.19,15.33V35.2c-.06,2.44.42,5.4-1.63,7.3a4.6,4.6,0,0,1-6.76-1.36c-1.3-2.35-.61-5.07-.8-7.57V25.9c0-5,0-10.39,0-15.15a6.43,6.43,0,0,1,1-3.67A3.6,3.6,0,0,1,6.68,6c2.93.44,3.4,3.91,3.25,6.25V27.53Z"/><path class="cls-11" d="M9.72,27.53V12.2c.15-2.36-.33-5.65-3.08-6a3.39,3.39,0,0,0-3.35,1,6.13,6.13,0,0,0-1,3.55c0,4.74,0,10.11,0,15.14v7.67c.17,2.51-.49,5.23.77,7.46a4.4,4.4,0,0,0,6.44,1.32c1.95-1.79,1.51-4.68,1.56-7.15V19.87c-.08-5.09.18-10.27-.18-15.28A5.13,5.13,0,0,0,5.23.74,5.22,5.22,0,0,0,.69,5.86H.54A5.36,5.36,0,0,1,5.21.59a5.29,5.29,0,0,1,5.81,4c.36,5.09.1,10.21.18,15.32V35.2c-.06,2.45.42,5.39-1.61,7.26a4.55,4.55,0,0,1-6.67-1.35c-1.29-2.32-.61-5-.79-7.54V25.9c0-5,0-10.39,0-15.15a6.29,6.29,0,0,1,1-3.64A3.55,3.55,0,0,1,6.67,6C9.55,6.43,10,9.85,9.88,12.2V27.53Z"/><path class="cls-12" d="M9.77,27.53V12.2c.15-2.36-.33-5.68-3.12-6.09A3.41,3.41,0,0,0,3.26,7.18a6.25,6.25,0,0,0-1,3.57c0,4.75,0,10.12,0,15.15v7.67c.18,2.51-.49,5.23.78,7.48a4.44,4.44,0,0,0,6.51,1.33c2-1.81,1.52-4.72,1.57-7.18V19.87c-.08-5.09.18-10.26-.17-15.29A5.18,5.18,0,0,0,5.22.7,5.26,5.26,0,0,0,.64,5.86H.59A5.33,5.33,0,0,1,5.22.64,5.24,5.24,0,0,1,11,4.56c.36,5.07.1,10.21.18,15.31V35.2c-.06,2.46.4,5.38-1.59,7.22A4.49,4.49,0,0,1,3,41.08c-1.28-2.28-.61-5-.79-7.51V25.9c0-5,0-10.4,0-15.15a6.15,6.15,0,0,1,1-3.6A3.47,3.47,0,0,1,6.66,6.06C9.5,6.48,10,9.85,9.82,12.2V27.53Z"/></g></svg>